<svg xmlns="http://www.w3.org/2000/svg" width="47" height="47" viewBox="0 0 47 47"><defs><style>.a{fill:#faccff;}.b{opacity:0.9;}.c{fill:none;stroke:#151c4d;stroke-linecap:round;stroke-linejoin:round;stroke-width:2px;}</style></defs><g transform="translate(-131 -4544)"><circle class="a" cx="23.5" cy="23.5" r="23.5" transform="translate(131 4544)"/><g class="b" transform="translate(142 4559)"><path class="c" d="M19.992,17.5A2.5,2.5,0,1,1,17.5,15,2.5,2.5,0,0,1,19.992,17.5Z" transform="translate(-5.018 -8.672)"/><path class="c" d="M20.774,10.927a7.489,7.489,0,0,1,0,10.6M10.19,21.511a7.489,7.489,0,0,1,0-10.6M24.306,7.4a12.481,12.481,0,0,1,0,17.648m-17.648,0a12.481,12.481,0,0,1,0-17.648" transform="translate(-3.003 -7.395)"/></g></g></svg>