<svg xmlns="http://www.w3.org/2000/svg" width="212.67" height="73.317" viewBox="0 0 212.67 73.317"><defs><style>.a{fill:#fff;stroke:#000;stroke-width:2px;}</style></defs><g transform="translate(1 1)"><path class="a" d="M7.558,0H201.112a8.565,8.565,0,0,1,8.558,8.558v54.2a8.565,8.565,0,0,1-8.558,8.558H7.558A8.565,8.565,0,0,1-1,62.759V8.558A8.565,8.565,0,0,1,7.558,0Z" transform="translate(1)"/><g transform="translate(18.682 12.552)"><path d="M27.409,80.009a9.2,9.2,0,0,1,4.365-7.7,9.46,9.46,0,0,0-7.4-4.008c-3.109-.328-6.133,1.868-7.716,1.868-1.612,0-4.065-1.826-6.69-1.783a9.836,9.836,0,0,0-8.287,5.063C-1.9,79.653.765,88.781,4.2,93.8c1.726,2.453,3.723,5.206,6.361,5.106,2.567-.1,3.537-1.64,6.632-1.64s3.979,1.64,6.661,1.583c2.767-.043,4.493-2.468,6.162-4.949a20.12,20.12,0,0,0,2.81-5.734,8.9,8.9,0,0,1-5.42-8.159" transform="translate(0.023 -58.529)"/><path d="M120.439,6.476A9.049,9.049,0,0,0,122.507,0a9.175,9.175,0,0,0-5.948,3.081,8.677,8.677,0,0,0-2.125,6.233,7.6,7.6,0,0,0,6-2.838" transform="translate(-98.071)"/></g><g transform="translate(65.597 31.208)"><path d="M17.672,23.967H14.078l-1.968-6.19H5.263l-1.869,6.19H-.1L6.675,2.9h4.193l6.8,21.067Zm-6.148-8.786L9.742,9.689C9.556,9.119,9.2,7.807,8.686,5.724H8.615c-.214.9-.542,2.225-1,3.965L5.862,15.181Z" transform="translate(0.1 -2.6)"/><path d="M158.634,49.631a8.556,8.556,0,0,1-2.111,6.119,6.149,6.149,0,0,1-4.678,2,4.685,4.685,0,0,1-4.336-2.154v7.973h-3.38V47.206c0-1.626-.043-3.281-.128-4.992h2.967l.185,2.411h.057a5.99,5.99,0,0,1,9.6-.6A8.263,8.263,0,0,1,158.634,49.631Zm-3.437.114a6.2,6.2,0,0,0-1-3.651,3.457,3.457,0,0,0-2.938-1.5,3.585,3.585,0,0,0-2.268.827,3.82,3.82,0,0,0-1.326,2.168,4.617,4.617,0,0,0-.157,1.027v2.539a4.084,4.084,0,0,0,1.013,2.8,3.37,3.37,0,0,0,2.639,1.141,3.482,3.482,0,0,0,2.967-1.469A6.443,6.443,0,0,0,155.2,49.745Z" transform="translate(-123.447 -36.038)"/><path d="M281.034,49.631a8.556,8.556,0,0,1-2.111,6.119,6.149,6.149,0,0,1-4.678,2,4.685,4.685,0,0,1-4.336-2.154v7.973h-3.38V47.206c0-1.626-.043-3.281-.128-4.992h2.967l.185,2.411h.057a5.99,5.99,0,0,1,9.6-.6A8.263,8.263,0,0,1,281.034,49.631Zm-3.437.114a6.2,6.2,0,0,0-1-3.651,3.457,3.457,0,0,0-2.938-1.5,3.585,3.585,0,0,0-2.268.827,3.9,3.9,0,0,0-1.327,2.168,4.618,4.618,0,0,0-.157,1.027v2.539a4.084,4.084,0,0,0,1.013,2.8,3.37,3.37,0,0,0,2.639,1.141,3.464,3.464,0,0,0,2.967-1.469A6.347,6.347,0,0,0,277.6,49.745Z" transform="translate(-228.388 -36.038)"/><path d="M427.551,16.261a5.641,5.641,0,0,1-1.868,4.379,8.293,8.293,0,0,1-5.734,1.84,10.033,10.033,0,0,1-5.449-1.312l.785-2.81a9.474,9.474,0,0,0,4.878,1.312,4.594,4.594,0,0,0,2.967-.856,2.8,2.8,0,0,0,1.07-2.3,2.97,2.97,0,0,0-.87-2.154,8.144,8.144,0,0,0-2.91-1.626c-3.723-1.384-5.563-3.395-5.563-6.033a5.351,5.351,0,0,1,1.954-4.25A7.751,7.751,0,0,1,421.988.8a10.178,10.178,0,0,1,4.778,1l-.856,2.739a8.418,8.418,0,0,0-4.051-.97,4.2,4.2,0,0,0-2.8.87,2.531,2.531,0,0,0-.842,1.911,2.561,2.561,0,0,0,.97,2.054,10.882,10.882,0,0,0,3.067,1.626,10.281,10.281,0,0,1,3.994,2.567,5.337,5.337,0,0,1,1.3,3.666" transform="translate(-355.364 -0.8)"/><path d="M528.843,23.919H525.12v7.374c0,1.868.656,2.81,1.968,2.81a6.26,6.26,0,0,0,1.5-.157l.1,2.567a7.827,7.827,0,0,1-2.625.371,4.039,4.039,0,0,1-3.124-1.227,5.954,5.954,0,0,1-1.127-4.094V23.9H519.6V21.38h2.211V18.6l3.309-1v3.78h3.723v2.539" transform="translate(-445.473 -15.204)"/><path d="M612.377,49.774a8.343,8.343,0,0,1-2,5.748,7.149,7.149,0,0,1-5.563,2.311,6.845,6.845,0,0,1-5.335-2.211A8.03,8.03,0,0,1,597.5,50.03a8.284,8.284,0,0,1,2.04-5.777A7.118,7.118,0,0,1,605.06,42a6.941,6.941,0,0,1,5.377,2.225A7.928,7.928,0,0,1,612.377,49.774Zm-3.495.071a6.807,6.807,0,0,0-.9-3.58,3.5,3.5,0,0,0-6.133,0,7.723,7.723,0,0,0,0,7.232,3.464,3.464,0,0,0,6.1-.029A6.911,6.911,0,0,0,608.882,49.845Z" transform="translate(-512.262 -36.123)"/><path d="M729.844,45.181a6.253,6.253,0,0,0-1.07-.086,3.184,3.184,0,0,0-2.753,1.341,5.088,5.088,0,0,0-.842,3V57.4H721.8V46.992c0-1.754-.029-3.352-.1-4.778h2.938l.128,2.91h.1a5.178,5.178,0,0,1,1.683-2.411,4.106,4.106,0,0,1,2.439-.813,7.1,7.1,0,0,1,.842.057l.014,3.224" transform="translate(-618.747 -36.038)"/><path d="M803.407,48.832a7.722,7.722,0,0,1-.128,1.526H793.152a4.4,4.4,0,0,0,1.469,3.437,5.057,5.057,0,0,0,3.309,1.055,11.363,11.363,0,0,0,4.093-.713l.528,2.339a12.674,12.674,0,0,1-5.092.941,7.378,7.378,0,0,1-5.548-2.082,7.688,7.688,0,0,1-2.011-5.577,8.715,8.715,0,0,1,1.883-5.72,6.463,6.463,0,0,1,5.306-2.439,5.637,5.637,0,0,1,4.964,2.439A8.25,8.25,0,0,1,803.407,48.832Zm-3.223-.87a4.547,4.547,0,0,0-.656-2.6,2.945,2.945,0,0,0-2.682-1.412,3.206,3.206,0,0,0-2.681,1.369,5.073,5.073,0,0,0-1,2.624Z" transform="translate(-677.22 -35.781)"/></g><g transform="translate(66.852 13.079)"><path d="M8.443,14.855H6.675L5.7,11.817H2.339l-.927,3.038H-.3L3.023,4.5H5.077ZM5.405,10.533l-.87-2.71c-.086-.271-.257-.927-.528-1.954H3.979c-.114.442-.257,1.084-.5,1.954l-.856,2.71Z" transform="translate(0.3 -3.958)"/><path d="M76.274,24.7,73.45,32.174H71.839L69.1,24.7h1.783l1.269,3.951c.214.656.4,1.284.542,1.883h.043c.128-.542.314-1.17.542-1.883L74.534,24.7h1.74" transform="translate(-59.201 -21.277)"/><path d="M133.736,31.4l-.128-.856h-.043a2.567,2.567,0,0,1-2.182,1.027,2.167,2.167,0,0,1-2.282-2.2c0-1.84,1.6-2.8,4.365-2.8v-.143c0-.984-.528-1.469-1.555-1.469a3.483,3.483,0,0,0-1.954.556l-.342-1.084a4.8,4.8,0,0,1,2.567-.642c1.954,0,2.938,1.027,2.938,3.1v2.753a9.941,9.941,0,0,0,.114,1.783l-1.5-.029Zm-.228-3.723c-1.84,0-2.767.442-2.767,1.512a1.058,1.058,0,0,0,1.141,1.17,1.587,1.587,0,0,0,1.626-1.526Z" transform="translate(-110.643 -20.505)"/><path d="M191.284,4.183a.972.972,0,0,1-.984-1,1.013,1.013,0,0,1,2.025,0A.97.97,0,0,1,191.284,4.183Zm-.8,1.227h1.655v7.46h-1.655Z" transform="translate(-163.114 -1.986)"/><path d="M223.9.7h1.655V11.583H223.9Z" transform="translate(-191.922 -0.7)"/><path d="M257.036,31.317l-.128-.856h-.043a2.567,2.567,0,0,1-2.182,1.027,2.167,2.167,0,0,1-2.282-2.2c0-1.84,1.6-2.8,4.365-2.8v-.143c0-.984-.528-1.469-1.555-1.469a3.484,3.484,0,0,0-1.954.556l-.342-1.1a4.8,4.8,0,0,1,2.567-.642c1.954,0,2.938,1.027,2.938,3.1v2.753a11.792,11.792,0,0,0,.1,1.783h-1.483Zm-.228-3.723c-1.84,0-2.767.442-2.767,1.512a1.058,1.058,0,0,0,1.141,1.17,1.587,1.587,0,0,0,1.626-1.526Z" transform="translate(-216.357 -20.419)"/><path d="M318.394,11.768a2.541,2.541,0,0,1-2.353-1.326h-.029l-.1,1.155H314.5c.043-.6.057-1.269.057-2.011V.7h1.669V5.221h.028a2.566,2.566,0,0,1,2.382-1.241c1.8,0,3.052,1.54,3.052,3.78C321.689,10.071,320.291,11.768,318.394,11.768Zm-.342-6.49a1.9,1.9,0,0,0-1.826,1.983V8.573a1.824,1.824,0,0,0,1.8,1.868c1.241,0,1.983-1.013,1.983-2.624,0-1.512-.77-2.539-1.954-2.539Z" transform="translate(-269.599 -0.7)"/><path d="M382.1.7h1.655V11.583H382.1Z" transform="translate(-327.557 -0.7)"/><path d="M417.475,27.808H412.5a2.143,2.143,0,0,0,2.353,2.211,5.61,5.61,0,0,0,2.011-.357l.257,1.155a6.049,6.049,0,0,1-2.5.456,3.466,3.466,0,0,1-3.723-3.766c0-2.282,1.412-4.008,3.537-4.008,1.9,0,3.109,1.412,3.109,3.552A2.891,2.891,0,0,1,417.475,27.808Zm-1.512-1.184c0-1.155-.585-1.968-1.64-1.968a1.967,1.967,0,0,0-1.811,1.968Z" transform="translate(-352.249 -20.248)"/><path d="M505.894,31.488a3.55,3.55,0,0,1-3.594-3.837,3.635,3.635,0,0,1,3.723-3.951,3.523,3.523,0,0,1,3.594,3.823A3.662,3.662,0,0,1,505.894,31.488Zm.071-6.575c-1.2,0-1.968,1.127-1.968,2.682s.784,2.653,1.954,2.653,1.954-1.2,1.954-2.7-.77-2.639-1.94-2.639Z" transform="translate(-430.612 -20.419)"/><path d="M576.833,31.231h-1.654V26.938c0-1.326-.513-1.983-1.512-1.983a1.716,1.716,0,0,0-1.654,1.826v4.436h-1.655V25.9c0-.656-.014-1.369-.057-2.14h1.455l.071,1.155h.043a2.686,2.686,0,0,1,2.368-1.312c1.569,0,2.6,1.2,2.6,3.152v4.479" transform="translate(-488.913 -20.334)"/><path d="M665.022,14.809H663.2v3.623c0,.927.328,1.384.97,1.384a3.629,3.629,0,0,0,.742-.071L664.95,21a3.6,3.6,0,0,1-1.284.185c-1.312,0-2.082-.727-2.082-2.61V14.809H660.5V13.568h1.084V12.2l1.626-.5v1.854h1.826v1.255" transform="translate(-566.248 -10.131)"/><path d="M714.876,11.6h-1.655V7.332c0-1.341-.513-2.011-1.512-2.011a1.626,1.626,0,0,0-1.655,1.769v4.493H708.4V.7h1.655V5.179h.028a2.509,2.509,0,0,1,2.239-1.212c1.583,0,2.553,1.227,2.553,3.181V11.6" transform="translate(-607.316 -0.7)"/><path d="M773.675,27.808H768.7a2.143,2.143,0,0,0,2.353,2.211,5.61,5.61,0,0,0,2.011-.357l.257,1.155a6.049,6.049,0,0,1-2.5.456,3.466,3.466,0,0,1-3.723-3.766c0-2.282,1.412-4.008,3.537-4.008,1.9,0,3.109,1.412,3.109,3.552A2.891,2.891,0,0,1,773.675,27.808Zm-1.512-1.184c0-1.155-.585-1.968-1.64-1.968a1.957,1.957,0,0,0-1.811,1.968Z" transform="translate(-657.643 -20.248)"/></g></g></svg>