<svg xmlns="http://www.w3.org/2000/svg" width="47" height="47" viewBox="0 0 47 47"><defs><style>.a{fill:#faccff;}.b{opacity:0.9;}.c{fill:#b603c9;stroke-linecap:round;}.d,.e{stroke:none;}.e{fill:#151c4d;}</style></defs><g transform="translate(-131 -4120)"><circle class="a" cx="23.5" cy="23.5" r="23.5" transform="translate(131 4120)"/><g class="b" transform="translate(142 4128)"><g class="c" transform="translate(-20.868 -13.149)"><path class="d" d="M45.18,18.721h-20.6a2.3,2.3,0,0,1-2.421-2.141,2.3,2.3,0,0,1,2.421-2.141h20.6a.645.645,0,0,0,0-1.29h-20.6a3.583,3.583,0,0,0-3.71,3.431,3.2,3.2,0,0,0,.025.387.631.631,0,0,0-.025.17V41.543a.647.647,0,0,0,.066.285c.159.322,1.608,3.146,3.644,3.146h20.6a.645.645,0,0,0,.645-.645V19.366A.645.645,0,0,0,45.18,18.721ZM22.158,41.385V19.174a3.873,3.873,0,0,0,2.421.836h1.194V43.683H24.578C23.594,43.683,22.541,42.1,22.158,41.385Zm4.9,2.3V20.011H44.535V43.683Z"/><path class="e" d="M 24.57849884033203 13.14900207519531 L 45.18013763427734 13.14900207519531 C 45.53613662719727 13.14900207519531 45.82505798339844 13.4375 45.82505798339844 13.79393005371094 C 45.82505798339844 14.15036010742188 45.53613662719727 14.43886184692383 45.18013763427734 14.43886184692383 L 24.57849884033203 14.43886184692383 C 23.24392700195313 14.43886184692383 22.15785598754883 15.39895248413086 22.15785598754883 16.5796012878418 C 22.15785598754883 17.7602424621582 23.24392700195313 18.72076034545898 24.57849884033203 18.72076034545898 L 45.18013763427734 18.72076034545898 C 45.53613662719727 18.72076034545898 45.82505798339844 19.00926208496094 45.82505798339844 19.36569213867188 L 45.82505798339844 44.32791900634766 C 45.82505798339844 44.68434143066406 45.53613662719727 44.97283935546875 45.18013763427734 44.97283935546875 L 24.57849884033203 44.97283935546875 C 22.54266738891602 44.97283935546875 21.09286880493164 42.14934158325195 20.9342155456543 41.82730102539063 C 20.89078521728516 41.73873138427734 20.86799621582031 41.64112091064453 20.86799621582031 41.54267120361328 L 20.86799621582031 17.13682174682617 C 20.86799621582031 17.07748031616211 20.87831878662109 17.02116012573242 20.89336776733398 16.96699142456055 C 20.87788772583008 16.8397216796875 20.86799621582031 16.71073150634766 20.86799621582031 16.5796012878418 C 20.86799621582031 14.688232421875 22.5323486328125 13.14900207519531 24.57849884033203 13.14900207519531 Z M 25.77290725708008 43.68254852294922 L 25.77290725708008 20.01018905639648 L 24.57849884033203 20.01018905639648 C 23.65367889404297 20.01018905639648 22.80837631225586 19.69332122802734 22.15785598754883 19.17393112182617 L 22.15785598754883 41.38529968261719 C 22.54132843017578 42.10066223144531 23.59360885620117 43.68254852294922 24.57809448242188 43.68254852294922 C 24.57821655273438 43.68254852294922 24.57837677001953 43.68254852294922 24.57849884033203 43.68254852294922 L 25.77290725708008 43.68254852294922 Z M 44.53520965576172 43.68297958374023 L 44.53520965576172 20.0106201171875 L 27.06276702880859 20.0106201171875 L 27.06276702880859 43.68297958374023 L 44.53520965576172 43.68297958374023 Z"/></g><g class="c" transform="translate(-34.444 -16.842)"><path class="d" d="M45.329,19.628a.645.645,0,0,0,0,1.29H57.9a.645.645,0,0,0,0-1.29Z"/><path class="e" d="M 45.32892608642578 19.62800407409668 L 57.89818572998047 19.62800407409668 C 58.25418472290039 19.62800407409668 58.54311752319336 19.91650390625 58.54311752319336 20.27293395996094 C 58.54311752319336 20.62936401367188 58.25418472290039 20.9178638458252 57.89818572998047 20.9178638458252 L 45.32892608642578 20.9178638458252 C 44.97251510620117 20.9178638458252 44.68399429321289 20.62936401367188 44.68399429321289 20.27293395996094 C 44.68399429321289 19.91650390625 44.97251510620117 19.62800407409668 45.32892608642578 19.62800407409668 Z"/></g><g class="c" transform="translate(-34.364 -27.18)"><path class="d" d="M53.483,40.389H51.5V38.407a.645.645,0,0,0-.645-.645H47.815a.645.645,0,0,0-.645.645v1.982H45.189a.645.645,0,0,0-.645.645v3.041a.645.645,0,0,0,.645.645H47.17v5.316a.645.645,0,0,0,.645.645h3.041a.645.645,0,0,0,.645-.645V44.719h1.982a.645.645,0,0,0,.645-.645V41.033A.645.645,0,0,0,53.483,40.389Zm-.645,3.041H50.856a.645.645,0,0,0-.645.645v5.316H48.46V44.075a.645.645,0,0,0-.645-.645H45.834V41.678h1.981a.645.645,0,0,0,.645-.645V39.051h1.751v1.982a.645.645,0,0,0,.645.645h1.982Z"/><path class="e" d="M 47.81508636474609 37.76200485229492 L 50.85613632202148 37.76200485229492 C 51.21256637573242 37.76200485229492 51.50106811523438 38.05049514770508 51.50106811523438 38.40693664550781 L 51.50106811523438 40.38858413696289 L 53.48272705078125 40.38858413696289 C 53.83873748779297 40.38858413696289 54.12764739990234 40.67708587646484 54.12764739990234 41.03309631347656 L 54.12764739990234 44.0745735168457 C 54.12764739990234 44.43099594116211 53.83873748779297 44.7194938659668 53.48272705078125 44.7194938659668 L 51.50106811523438 44.7194938659668 L 51.50106811523438 50.03587341308594 C 51.50106811523438 50.39186477661133 51.21256637573242 50.68080520629883 50.85613632202148 50.68080520629883 L 47.81508636474609 50.68080520629883 C 47.45865631103516 50.68080520629883 47.17014694213867 50.39186477661133 47.17014694213867 50.03587341308594 L 47.17014694213867 44.71994400024414 L 45.18893814086914 44.71994400024414 C 44.8325080871582 44.71994400024414 44.54400634765625 44.43144607543945 44.54400634765625 44.07500457763672 L 44.54400634765625 41.03352355957031 C 44.54400634765625 40.67708587646484 44.8325080871582 40.38858413696289 45.18893814086914 40.38858413696289 L 47.17014694213867 40.38858413696289 L 47.17014694213867 38.40693664550781 C 47.17014694213867 38.05049514770508 47.45865631103516 37.76200485229492 47.81508636474609 37.76200485229492 Z M 52.83778762817383 43.42964553833008 L 52.83778762817383 41.67800521850586 L 50.85613632202148 41.67800521850586 C 50.50013732910156 41.67800521850586 50.21121597290039 41.3895149230957 50.21121597290039 41.03309631347656 L 50.21121597290039 39.05143356323242 L 48.46001815795898 39.05143356323242 L 48.46001815795898 41.03309631347656 C 48.46001815795898 41.3895149230957 48.17151641845703 41.67800521850586 47.81508636474609 41.67800521850586 L 45.83386611938477 41.67800521850586 L 45.83386611938477 43.42964553833008 L 47.81508636474609 43.42964553833008 C 48.17151641845703 43.42964553833008 48.46001815795898 43.71814346313477 48.46001815795898 44.0745735168457 L 48.46001815795898 49.3905143737793 L 50.21121597290039 49.3905143737793 L 50.21121597290039 44.0745735168457 C 50.21121597290039 43.71814346313477 50.50013732910156 43.42964553833008 50.85613632202148 43.42964553833008 L 52.83778762817383 43.42964553833008 Z"/></g></g></g></svg>