<svg xmlns="http://www.w3.org/2000/svg" width="288.184" height="203.946" viewBox="0 0 288.184 203.946"><defs><style>.a{fill:#e3e5fc;}.b{fill:#d4a79a;}.c{fill:#eac2ab;}.d{fill:#4b369d;}.e{fill:#f3aa02;}.f{fill:#fdc510;}.g{fill:#5a54ff;}.h{fill:#d7384e;}.i{fill:#f44e4e;}.j{fill:#978cff;}.k{fill:#a7adff;}.l{fill:#fff;}.m{fill:#ffd592;}</style></defs><g transform="translate(29.132 194.143)"><ellipse class="a" cx="116.459" cy="4.537" rx="116.459" ry="4.537"/></g><g transform="translate(192.83 0)"><path class="b" d="M1157.77,274.178a50.5,50.5,0,0,1-21.422-7,105.614,105.614,0,0,1-11.85-8.311c-7.25-5.982-14.3-11.31-21.252-17.629a7.4,7.4,0,0,1-1.013-.923s-1.362,3.859-1.362,3.861c6.748,5.844,13.217,12.005,20.07,17.73,9.645,8.054,21.306,15.787,34.3,16.8C1157.86,278.912,1157.77,274.178,1157.77,274.178Z" transform="translate(-1100.87 -225.626)"/><g transform="translate(44.45)"><path class="b" d="M1341.53,328.618l.1,11.024,8.459,3.7s-4.838-7.8-3.66-14.509S1341.53,328.618,1341.53,328.618Z" transform="translate(-1327.648 -290.394)"/><path class="c" d="M1310.657,229.54s-1.985,2.4-.5,10.1,4.169,14.335,6.484,13.978c6.4-.984,8.83-5.371,11.2-9.123,2.909-4.6-1.934-16.356-1.934-16.356l-4.94-2.957Z" transform="translate(-1303.462 -214.163)"/><path class="d" d="M1284.754,192.772c-1.333-4.542.015-9.758,4-12.459a2.739,2.739,0,0,1,1.515-.584c2.463.034,1.294,5.388,5.381,5.049,2.659-.221,4.78-2.121,7.407-2.383,3.33-.33,5.909,1.42,7.877,3.951.587.754,4.685,6.753,2.56,7.162,6.6-1.273.31,14.582-1.159,16.72a4.815,4.815,0,0,1-5.226,1.927,17.627,17.627,0,0,0,1.471-4.848c.182-1.7,2.775-9.279-5.524-11.312-5.9-1.445-11.913,5.109-17.078-.834A6.388,6.388,0,0,1,1284.754,192.772Z" transform="translate(-1284.256 -179.729)"/><path class="c" d="M1383.835,268.2s2.455-2.538,2.019,1.483-2.584,4.758-2.584,4.758Z" transform="translate(-1359.271 -246.158)"/></g><g transform="translate(50.308 81.953)"><path class="b" d="M1435.63,903.373l5.076,13.326,4.63-1.239-6.123-13.591S1436.588,902.185,1435.63,903.373Z" transform="translate(-1404.797 -808.787)"/><path class="e" d="M1406.205,960.832c.165.276,1.8.165,2.048.167,2.528.036,6.413.221,8.588-1.241,2.118-1.425,3.481-3.873,5.352-5.589a22.453,22.453,0,0,1,4.552-2.795c1.719-.945-1.777-8.784-3.861-7.516-1.687,1.028-.858,3.868-5.16,3.5-3.687-.318-1.345,4.947-5.633,8.084C1408.3,958.214,1404.4,957.8,1406.205,960.832Z" transform="translate(-1382.159 -840.492)"/><path class="d" d="M1325.266,563.165a105.343,105.343,0,0,0,14.308,35.56c3.364,5.349,4.557,6.932,8.03,12.2,4.954,7.509-8.413,12.11-12.255,13.256-2.516.751-6.295.8-6.212-1.389a4.518,4.518,0,0,1,.785-1.869c3.112-5.558-.029-11.433-2.538-16.649-7.521-15.636-8.849-19.345-14.9-35.558-2.305-6.174-3.471-27.128-4.033-33.813-.344-4.091,3.1-20.969,10.19-16.23,4.411,2.95,2.438,13.336,2.143,17.529-.2,2.9-.64,6.055-.1,9.007C1321.792,551.271,1324.042,557.108,1325.266,563.165Z" transform="translate(-1308.423 -517.839)"/></g><g transform="translate(42.491 91.876)"><path class="c" d="M1360.354,929.473,1357.2,943.82l4.688,1.546,2.4-15.166S1361.852,928.988,1360.354,929.473Z" transform="translate(-1337.56 -839.536)"/><path class="f" d="M1276.616,986.092a45.284,45.284,0,0,0,10.231,1.7c6.724.5,14.228.749,15.59-.25s2.242-9.48,0-9.48-3.112,3.243-7.066.349c-3.386-2.48-6.091,2.2-11.986,3.442S1275.1,983.6,1276.616,986.092Z" transform="translate(-1276.173 -876.156)"/><path class="g" d="M1325.263,654.333a4.162,4.162,0,0,1,1.331-1.328c4.7-3.742,3.549-9.451,2.8-14.439-1.781-11.833,1.988-23.795.839-35.6-1.641-16.853-.463-23.145-3.1-34.407-.96-4.091-2.283-10.418,4.045-9.22a24.664,24.664,0,0,0,8.946-.068c1.573-.276-.031-.788,1.573-.276,5.466,1.745,5.034,6.927,4.562,11.976-.7,7.475-1.139,17.743-1.5,25.334-.514,10.762-2.305,21.536-1.028,32.215.625,5.233,1.353,10.452,2.051,15.675.407,3.047,2.955,9.722,1.246,12.48-2.346,3.786-12.8.577-16.293.492C1328.1,657.1,1324.5,656.119,1325.263,654.333Z" transform="translate(-1313.285 -558.78)"/></g><g transform="translate(45.183 45.028)"><path class="h" d="M1297.767,389.851c1.585-6.433-.136-17.253,4.4-22.026.465-.49.914-1.108,1.573-1.251,11.765-2.552,12.415,3.27,14.863,7.325s-.882,7.293.318,11.845c1.362,5.175,1.088,10.556,1.185,15.9.061,3.253-.38,4.848-.2,8.105a32.508,32.508,0,0,0,.495,6.169c.344,1.474,2.79,6.617,2.227,8.117-.446,1.188-2.487.739-3.49.773-3.881.128-5.109.109-8.561-1.595-3.153-1.559-15.307,1.954-18.942,1.653-1.806-.15,2.487-8.9,3.3-12.177,1.937-7.778.982-11.986,1.784-17.478C1296.984,393.429,1297.328,391.635,1297.767,389.851Z" transform="translate(-1290.248 -365.841)"/><path class="h" d="M1300.771,366.234s-3.112,2.814-10.912-.734l-2.579,8.059s7.536,3.607,11.125.88C1301.5,372.093,1300.689,366.4,1300.771,366.234Z" transform="translate(-1287.28 -365.5)"/></g><path class="c" d="M1261.237,422.037c-1.815,4.768-24.709,9.155-35.859,8.193-2.732-.235-5.609-.584-7.441,1.636,1.3.633,2.283.23,3.691.49l-5.017,4.474c-.516.461-1.088,1.171-.785,1.818a1.319,1.319,0,0,0,1.3.584c3.246-.051,5.968-2.6,9.053-3.692,3.8-1.35,6.833-.936,10.653-1.595,25.87-4.465,31.617-5.238,29.971-21.218-1.251-12.148-3.679-14.044-7.192-17.876-.558-.608-1.561-1.2-2.1-.574a1.426,1.426,0,0,0-.16,1.183,30.08,30.08,0,0,0,2.482,6.464C1262.1,407.135,1262.8,417.928,1261.237,422.037Z" transform="translate(-1187.899 -342.071)"/><path class="i" d="M1376.99,385.7s-7.046-19.313-1.244-16.572c5.759,2.722,11.349,15.006,11.349,15.006l-9.594,4.079Z" transform="translate(-1307.384 -323.018)"/></g><g transform="translate(0 4.899)"><g transform="translate(0 19.551)"><path class="j" d="M341.856,643.194c.669,5.454,6.847,9.223,13.731,8.379L522.353,631.1c6.884-.846,11.967-6,11.3-11.45l-1.256-10.221L340.6,632.97Z" transform="translate(-332.049 -529.727)"/><path class="j" d="M497.2,291.38A12.5,12.5,0,0,0,483.19,280.7L316.424,301.17a12.5,12.5,0,0,0-11.014,13.755l3.517,28.652,191.795-23.543Z" transform="translate(-305.32 -280.602)"/><rect class="d" width="193.235" height="40.573" transform="translate(3.601 62.971) rotate(-6.996)"/><ellipse class="j" cx="10.507" cy="10.507" rx="10.507" ry="10.507" transform="translate(14.531 36.75)"/><path class="j" d="M922.032,470.138,895,473.456a6.627,6.627,0,0,1-7.364-5.752L885.865,453.3a6.626,6.626,0,0,1,5.752-7.364l27.033-3.318a6.626,6.626,0,0,1,7.364,5.752l1.77,14.407A6.627,6.627,0,0,1,922.032,470.138Z" transform="translate(-745.112 -403.308)"/></g><g transform="translate(21.674)"><path class="k" d="M394.75,558.369a12.646,12.646,0,0,0,12.609,12.609H575.378a12.646,12.646,0,0,0,12.609-12.609v-13H394.75Z" transform="translate(-394.748 -461.643)"/><path class="k" d="M587.977,212.549a12.646,12.646,0,0,0-12.609-12.609H407.349a12.646,12.646,0,0,0-12.609,12.609v29.566H587.975V212.549Z" transform="translate(-394.74 -199.94)"/><rect class="a" width="193.235" height="41.552" transform="translate(0.002 42.175)"/><ellipse class="g" cx="10.507" cy="10.507" rx="10.507" ry="10.507" transform="translate(15.411 10.781)"/><path class="g" d="M1007.984,357.6H980.747a6.628,6.628,0,0,1-6.607-6.607V336.477a6.628,6.628,0,0,1,6.607-6.607h27.237a6.628,6.628,0,0,1,6.607,6.607v14.514A6.626,6.626,0,0,1,1007.984,357.6Z" transform="translate(-833.702 -298.377)"/><path class="l" d="M483.558,491.84H455.226a3.415,3.415,0,0,1-3.406-3.406v-1.069a3.415,3.415,0,0,1,3.406-3.406h28.332a3.415,3.415,0,0,1,3.406,3.406v1.069A3.415,3.415,0,0,1,483.558,491.84Z" transform="translate(-437.985 -415.118)"/><path class="l" d="M665.728,491.84H637.4a3.415,3.415,0,0,1-3.406-3.406v-1.069a3.415,3.415,0,0,1,3.406-3.406h28.332a3.415,3.415,0,0,1,3.406,3.406v1.069A3.416,3.416,0,0,1,665.728,491.84Z" transform="translate(-575.999 -415.118)"/><path class="l" d="M847.9,491.84h-28.33a3.415,3.415,0,0,1-3.406-3.406v-1.069a3.415,3.415,0,0,1,3.406-3.406H847.9a3.415,3.415,0,0,1,3.405,3.406v1.069A3.418,3.418,0,0,1,847.9,491.84Z" transform="translate(-714.014 -415.118)"/><path class="l" d="M1027.778,491.84H999.446a3.415,3.415,0,0,1-3.406-3.406v-1.069a3.415,3.415,0,0,1,3.406-3.406h28.332a3.415,3.415,0,0,1,3.406,3.406v1.069A3.415,3.415,0,0,1,1027.778,491.84Z" transform="translate(-850.294 -415.118)"/></g><g transform="translate(207.359 76.723)"><path class="e" d="M1182.6,538.878q-2.719,1.807-5.521,3.5a3.433,3.433,0,0,1-5.112-1.338c-2.334-5.17-6.258-9.6-9.579-14.7-1.563-2.4-2.55-3.461-.031-5.386,1.476-1.127,2.7-1.772,4.193-2.848,3.883-2.795,5.4-1.559,6.913.4,4.79,6.186,6.472,9.715,9.589,15.113C1184.213,535.608,1184.563,537.588,1182.6,538.878Z" transform="translate(-1160.815 -516.472)"/><path class="m" d="M1181.109,555.755q-2.919,1.527-5.89,2.943c-2.148,1.008-4.562.216-4.775-1.815-.851-8.074-2.727-9.839-8.328-14.378a3.348,3.348,0,0,1-.056-5.228c1.551-1.11,4.736-3.452,6.229-4.622,1.59-1.263,4.334.262,5.851,2.133,4.082,5.073,7.352,10.146,8.471,16C1183.034,553,1183.216,554.669,1181.109,555.755Z" transform="translate(-1160.828 -528.381)"/><g transform="translate(8.31 12.216)"><path class="e" d="M1199.434,575.538a4.334,4.334,0,1,1,4.334-4.334A4.338,4.338,0,0,1,1199.434,575.538Zm0-7.759a3.425,3.425,0,1,0,3.425,3.425A3.429,3.429,0,0,0,1199.434,567.779Z" transform="translate(-1195.1 -566.87)"/></g></g></g></svg>