<svg xmlns="http://www.w3.org/2000/svg" width="42.19" height="42.19" viewBox="0 0 42.19 42.19"><defs><style>.a{fill:#fff;}.b{fill:#f6b958;}.c{fill:#fafafa;}</style></defs><path class="a" d="M95.325,18.917,83.556,5.208a3.943,3.943,0,0,0,.221-1.253,3.955,3.955,0,1,0-7.911,0,3.943,3.943,0,0,0,.221,1.253L64.317,18.92a1.318,1.318,0,0,0,2,1.717L77.755,7.315a3.872,3.872,0,0,0,4.132,0L93.326,20.634a1.317,1.317,0,1,0,2-1.717ZM78.5,3.955a1.318,1.318,0,1,1,1.318,1.318A1.319,1.319,0,0,1,78.5,3.955Z" transform="translate(-58.727)"/><path class="b" d="M40.872,224H1.318A1.319,1.319,0,0,0,0,225.318v21.1a1.319,1.319,0,0,0,1.318,1.318H40.872a1.319,1.319,0,0,0,1.318-1.318v-21.1A1.319,1.319,0,0,0,40.872,224Z" transform="translate(0 -205.542)"/><g transform="translate(5.274 23.732)"><path class="c" d="M67.955,290.637a1.318,1.318,0,1,0,0-2.637H65.318A1.319,1.319,0,0,0,64,289.318v10.548a1.318,1.318,0,1,0,2.637,0v-3.955h1.318a1.318,1.318,0,1,0,0-2.637H66.637v-2.637Z" transform="translate(-64 -288)"/><path class="c" d="M291.955,290.637a1.318,1.318,0,0,0,0-2.637h-2.637A1.319,1.319,0,0,0,288,289.318v10.548a1.319,1.319,0,0,0,1.318,1.318h2.637a1.318,1.318,0,0,0,0-2.637h-1.318v-2.637h1.318a1.318,1.318,0,1,0,0-2.637h-1.318v-2.637Z" transform="translate(-269.542 -288)"/><path class="c" d="M387.955,295.911a1.318,1.318,0,0,0,0-2.637h-1.318v-2.637h1.318a1.318,1.318,0,0,0,0-2.637h-2.637A1.319,1.319,0,0,0,384,289.318v10.548a1.319,1.319,0,0,0,1.318,1.318h2.637a1.318,1.318,0,0,0,0-2.637h-1.318v-2.637Z" transform="translate(-357.631 -288)"/><path class="c" d="M167.911,291.955A3.96,3.96,0,0,0,163.955,288h-2.637A1.319,1.319,0,0,0,160,289.318v10.548a1.318,1.318,0,0,0,2.637,0v-3.077l2.9,3.868a1.317,1.317,0,1,0,2.107-1.582l-2.521-3.362A3.944,3.944,0,0,0,167.911,291.955Zm-3.955,1.318h-1.318v-2.637h1.318a1.318,1.318,0,1,1,0,2.637Z" transform="translate(-152.089 -288)"/></g></svg>