<svg xmlns="http://www.w3.org/2000/svg" width="47" height="47" viewBox="0 0 47 47"><defs><style>.a{fill:#faccff;}.b{fill:none;stroke:#151c4d;stroke-width:2px;opacity:0.9;}</style></defs><g transform="translate(-131 -4285)"><circle class="a" cx="23.5" cy="23.5" r="23.5" transform="translate(131 4285)"/><path class="b" d="M11.928,10.853a.755.755,0,0,0,1.1,0L17.751,5.9A3.591,3.591,0,0,0,17.508.758a3.293,3.293,0,0,0-4.545.334l-.485.507L12,1.1A3.29,3.29,0,0,0,7.452.758,3.6,3.6,0,0,0,7.209,5.9Zm12.564,3.362a1.434,1.434,0,0,0-1.846,0l-4,3.2a2.758,2.758,0,0,1-1.733.607H11.785a.693.693,0,1,1,0-1.386h3.392a1.442,1.442,0,0,0,1.443-1.152,1.388,1.388,0,0,0-1.369-1.62H8.319A5.1,5.1,0,0,0,5.108,15L3.093,16.637H.693A.7.7,0,0,0,0,17.33v4.159a.7.7,0,0,0,.693.693H16.152a2.776,2.776,0,0,0,1.733-.607l6.551-5.242A1.386,1.386,0,0,0,24.492,14.215Z" transform="translate(142.5 4297.501)"/></g></svg>