<svg xmlns="http://www.w3.org/2000/svg" width="47" height="47" viewBox="0 0 47 47"><defs><style>.a{fill:#faccff;}.b{opacity:0.9;}.c{fill:none;stroke:#151c4d;stroke-linecap:round;stroke-linejoin:round;stroke-width:2px;}</style></defs><g transform="translate(-131 -4482)"><circle class="a" cx="23.5" cy="23.5" r="23.5" transform="translate(131 4482)"/><g class="b" transform="translate(142 4498)"><path class="c" d="M15.532,27.762V26.008A3.508,3.508,0,0,0,12.024,22.5H5.008A3.508,3.508,0,0,0,1.5,26.008v1.754" transform="translate(3.47 -11.976)"/><path class="c" d="M14.516,8.008A3.508,3.508,0,1,1,11.008,4.5,3.508,3.508,0,0,1,14.516,8.008Z" transform="translate(0.978 -4.5)"/><path class="c" d="M32.631,27.843V26.089A3.508,3.508,0,0,0,30,22.7" transform="translate(-8.367 -12.057)"/><path class="c" d="M24,4.695a3.508,3.508,0,0,1,0,6.8" transform="translate(-5.875 -4.581)"/><path class="c" d="M30,27.843V26.089A3.508,3.508,0,0,1,32.631,22.7" transform="translate(-30 -12.057)"/><path class="c" d="M26.638,4.695a3.508,3.508,0,0,0,0,6.8" transform="translate(-20.499 -4.581)"/></g></g></svg>