<svg xmlns="http://www.w3.org/2000/svg" width="162.245" height="162.124" viewBox="0 0 162.245 162.124"><defs><style>.a,.b{fill:#a7adff;}.a{opacity:0.67;}.c{fill:#e3e5fc;}.d{fill:#fff;}.e{fill:#fdc510;}.f{fill:none;}.g{fill:#f44e4e;}.h{fill:#eac2ab;}.i{fill:#4b369d;}.j{fill:#5a54ff;}.k{fill:#d4a79a;}.l{fill:#d7384e;}</style></defs><g transform="translate(-19.851)"><g transform="translate(0 12.373)"><g transform="translate(45.952 62.835)"><path class="a" d="M895.611,786.692H873.753c-4.226,0-7.683-2.482-7.683-5.517V753.087c0-3.034,3.457-5.517,7.683-5.517H895.61c4.226,0,7.683,2.482,7.683,5.517v28.088C903.294,784.21,899.837,786.692,895.611,786.692Z" transform="translate(-826.737 -701.216)"/><path class="b" d="M1126.22,605.292h-21.857c-4.226,0-7.683-1.582-7.683-3.516v-32.09c0-1.934,3.457-3.516,7.683-3.516h21.857c4.226,0,7.683,1.582,7.683,3.516v32.09C1133.9,603.71,1130.445,605.292,1126.22,605.292Z" transform="translate(-1017.941 -519.816)"/><path class="c" d="M665.43,876.562H643.573a7.7,7.7,0,0,1-7.683-7.683V845.123a7.7,7.7,0,0,1,7.683-7.683H665.43a7.7,7.7,0,0,1,7.683,7.683V868.88A7.7,7.7,0,0,1,665.43,876.562Z" transform="translate(-635.89 -791.086)"/></g><g transform="translate(116.793 47)"><path class="c" d="M1155.381,328.875h-40.189a7.7,7.7,0,0,1-7.683-7.683v-8.58a7.7,7.7,0,0,1,7.683-7.683h40.189a7.7,7.7,0,0,1,7.683,7.683v8.58A7.7,7.7,0,0,1,1155.381,328.875Z" transform="translate(-1097.761 -286.735)"/><path class="a" d="M1098.331,232.627h-40.189a7.7,7.7,0,0,1-7.683-7.683V206.133a7.7,7.7,0,0,1,7.683-7.683h40.189a7.7,7.7,0,0,1,7.683,7.683v18.812A7.7,7.7,0,0,1,1098.331,232.627Z" transform="translate(-1050.46 -198.45)"/><g transform="translate(8.517 3.827)"><path class="d" d="M1102.692,256.95a12.5,12.5,0,0,0,17.46,2.767l-14.694-20.227A12.5,12.5,0,0,0,1102.692,256.95Z" transform="translate(-1100.304 -236.304)"/><g transform="translate(6.469)"><path class="d" d="M1138.16,223.075l6.733,9.267,9.446-6.862A11.679,11.679,0,0,0,1138.16,223.075Z" transform="translate(-1138.16 -220.844)"/><path class="d" d="M1192.743,255.833c-.046-.063-.1-.12-.147-.183l-9.446,6.862,7.008,9.646A11.687,11.687,0,0,0,1192.743,255.833Z" transform="translate(-1175.462 -249.702)"/></g></g></g><g transform="translate(0 60.429)"><g transform="translate(19.851 16.288)"><path class="b" d="M511.523,654.951h-25a3.391,3.391,0,0,1-3.382-3.382v-.777a3.391,3.391,0,0,1,3.382-3.382h25a3.392,3.392,0,0,1,3.382,3.382v.777A3.393,3.393,0,0,1,511.523,654.951Z" transform="translate(-483.14 -647.41)"/><g transform="translate(25.583 1.938)"><path class="d" d="M635.373,660.816l-.026.031a.173.173,0,0,1-.243.024l-2.189-1.782a.173.173,0,0,1-.024-.243l.026-.031a.173.173,0,0,1,.243-.024l2.189,1.782A.174.174,0,0,1,635.373,660.816Z" transform="translate(-632.853 -658.753)"/><path class="d" d="M635.373,669.266l-.026-.031a.173.173,0,0,0-.243-.024l-2.189,1.782a.173.173,0,0,0-.024.243l.026.031a.173.173,0,0,0,.243.024l2.189-1.782A.175.175,0,0,0,635.373,669.266Z" transform="translate(-632.853 -667.392)"/></g></g></g></g><g transform="translate(24.452 115.804)"><g transform="translate(118)"><path class="e" d="M1259.909,836.726c-.039-.137-.073-.275-.1-.415a4.747,4.747,0,0,1,1.514-4.767c1.384-1.036,3.609-1.241,4.14-2.886.378-1.165-.373-2.356-.894-3.465s-.689-2.708.378-3.312c.873-.494,2.027.038,2.951-.35,1.574-.66,1.34-3.337,2.891-4.046,1.017-.465,2.232.2,3.313-.075,1.565-.407,1.975-2.493,1.594-4.063s-1.239-3.091-1.051-4.7c.509-4.373,10.841-7.561,11.027-1.729.051,1.6-1.02,2.989-1.632,4.47s-.5,3.624,1.012,4.169c1.02.369,2.433-.106,3.059.783,1.153,1.639-2.819,2.912-2.584,4.9.162,1.365,2.069,1.618,3,2.632,1.225,1.333.333,3.611-1.145,4.655s-3.349,1.346-4.974,2.143a2.6,2.6,0,0,0-1.5,1.476c-.431,1.564,1.611,2.585,3.214,2.826s3.686.853,3.684,2.474c0,1.3-1.444,2.078-2.71,2.375s-2.729.506-3.445,1.591c-.683,1.039-.366,2.435-.737,3.621-.837,2.676-9.631,4.323-12.356,3.659-4.28-1.042-3.115-4.65-6.109-7.881A10.379,10.379,0,0,1,1259.909,836.726Z" transform="translate(-1249.592 -803.745)"/><path class="f" d="M1264.36,1046.624l.214-.214" transform="translate(-1253.469 -1004.944)"/><path class="g" d="M1218.419,970.675c.8-1.893.566-4.041.321-6.082a4.866,4.866,0,0,0-.526-1.974,1.659,1.659,0,0,0-1.722-.854c-.861.22-1.336,1.329-2.223,1.389a1.589,1.589,0,0,1-1.442-1.241c-.4-1.282.094-2.657.1-4s-.945-2.954-2.261-2.683c-1.359.28-1.552,2.143-1.285,3.5.121.622.205,1.415-.335,1.746-.573.35-1.268-.155-1.764-.608a22,22,0,0,0-3.091-2.356c-.5-.318-1.194-.6-1.647-.219-.437.372-.291,1.077-.062,1.6a9.79,9.79,0,0,0,1.948,2.9c.412.424.887,1.071.506,1.523-.307.366-.892.214-1.334.032-.955-.388-3.4-4.265-2.922-.02s5.019,3.834,7.66,5.564a2.7,2.7,0,0,0-.378,3.621,6.32,6.32,0,0,0,3.322,2.165C1215.175,976.029,1216.82,974.483,1218.419,970.675Z" transform="translate(-1200.621 -929.322)"/><g transform="translate(8.278 33.783)"><path class="d" d="M1256.108,1012.867a.321.321,0,0,1-.272-.15l-6.722-10.779a.32.32,0,1,1,.543-.338l6.722,10.779a.319.319,0,0,1-.1.441A.333.333,0,0,1,1256.108,1012.867Z" transform="translate(-1249.065 -1001.449)"/></g><g transform="translate(12.813 36.61)"><path class="d" d="M1275.926,1023.078a.337.337,0,0,1-.082-.01.319.319,0,0,1-.227-.391l1.174-4.443a.32.32,0,1,1,.619.164l-1.174,4.443A.319.319,0,0,1,1275.926,1023.078Z" transform="translate(-1275.605 -1017.995)"/></g><g transform="translate(6.356 36.024)"><path class="d" d="M1241.823,1015.791c-.017,0-.034,0-.051,0l-3.684-.586a.32.32,0,1,1,.1-.632l3.684.586a.32.32,0,0,1-.05.636Z" transform="translate(-1237.817 -1014.565)"/></g><g transform="translate(18.218 14.788)"><path class="d" d="M1307.556,921.822a.319.319,0,0,1-.3-.424l10.654-30.893a.32.32,0,0,1,.6.209l-10.654,30.893A.317.317,0,0,1,1307.556,921.822Z" transform="translate(-1307.236 -890.29)"/></g><g transform="translate(22.578 33.088)"><path class="d" d="M1333.069,998.715a.32.32,0,0,1-.031-.639l6.936-.694a.324.324,0,0,1,.35.287.319.319,0,0,1-.287.35l-6.936.694A.223.223,0,0,1,1333.069,998.715Z" transform="translate(-1332.75 -997.381)"/></g><g transform="translate(25.447 23.592)"><path class="d" d="M1349.858,943.531a.32.32,0,0,1-.058-.634l5.88-1.083a.32.32,0,1,1,.116.629l-5.88,1.083A.315.315,0,0,1,1349.858,943.531Z" transform="translate(-1349.538 -941.808)"/></g><g transform="translate(19.142 23.591)"><path class="d" d="M1317.839,947.654a.322.322,0,0,1-.234-.1l-4.875-5.208a.32.32,0,0,1,.468-.437l4.875,5.208a.32.32,0,0,1-.015.453A.324.324,0,0,1,1317.839,947.654Z" transform="translate(-1312.643 -941.806)"/></g></g></g><g transform="translate(55.154 0)"><g transform="translate(18.869 53.275)"><path class="h" d="M757.034,751.766l-.126,8.759-3.137.261.713-9.132A4.646,4.646,0,0,1,757.034,751.766Z" transform="translate(-739.697 -698.914)"/><path class="e" d="M761.393,797.9a30.692,30.692,0,0,1-6.548.9c-4.3.224-9.086.292-9.945-.318s-1.319-5.677.111-5.653,1.948,1.969,4.5.285c2.189-1.442,3.86,1.376,7.608,2.184S762.385,796.432,761.393,797.9Z" transform="translate(-731.672 -733.07)"/><path class="i" d="M738.986,495.56a2.487,2.487,0,0,1,.7-.912c2.558-2.666,1.232-5.909.232-8.768-2.373-6.782-2.435-13.986-3.242-21.016a67.545,67.545,0,0,0-5.594-19.926c-1.037-2.31-2.539-5.9,1.57-5.822a16.718,16.718,0,0,0,5.622-.924c.96-.318-.1-.46.96-.318,3.624.485,6,6.358,5.678,8.587a46.7,46.7,0,0,0,.2,13.053c.815,6.381.829,12.893,2.765,19.046.948,3.016,1.958,6.013,2.949,9.015.579,1.751,2.888,5.425,2.105,7.216-1.075,2.459-8,1.606-10.2,1.9C741.067,496.908,738.693,496.686,738.986,495.56Z" transform="translate(-729.933 -437.818)"/></g><g transform="translate(6.869 53.275)"><path class="h" d="M757.034,751.766l-.126,8.759-3.137.261.713-9.132A4.646,4.646,0,0,1,757.034,751.766Z" transform="translate(-749.697 -697.914)"/><path class="e" d="M761.393,797.9a30.692,30.692,0,0,1-6.548.9c-4.3.224-9.086.292-9.945-.318s-1.319-5.677.111-5.653,1.948,1.969,4.5.285c2.189-1.442,3.86,1.376,7.608,2.184S762.385,796.432,761.393,797.9Z" transform="translate(-741.672 -732.07)"/><path class="j" d="M744.033,495.56a2.486,2.486,0,0,0-.7-.912c-2.558-2.666-1.232-5.909-.232-8.768,2.373-6.782,2.435-13.986,3.242-21.016a67.543,67.543,0,0,1,5.594-19.926c1.037-2.31,2.539-5.9-1.57-5.822a16.718,16.718,0,0,1-5.622-.924c-.96-.318.1-.46-.96-.318-3.624.485-6,6.358-5.678,8.587a46.7,46.7,0,0,1-.2,13.053c-.815,6.381-.829,12.893-2.765,19.046-.948,3.016-1.958,6.013-2.949,9.015-.579,1.751-2.888,5.425-2.105,7.216,1.075,2.459,8,1.606,10.2,1.9C741.952,496.908,744.325,496.686,744.033,495.56Z" transform="translate(-729.932 -437.818)"/></g><g transform="translate(11.712)"><path class="k" d="M824.95,241.226,824,247.74c-1.681.463-3.445,1.345-5.219,1.343.08-1.208,1.347-2.591,1.928-3.73a8.6,8.6,0,0,0,1.124-4.366C821.627,236.932,824.95,241.226,824.95,241.226Z" transform="translate(-808.441 -219.901)"/><path class="h" d="M820.6,160.119c0,.007,2.736,1.743,1.283,5.9-1.553,4.445-3.794,8.166-5.231,7.782-3.975-1.065-5.157-3.843-6.357-6.24-1.471-2.941,2.543-9.53,2.543-9.53l3.366-1.377Z" transform="translate(-801.139 -151.42)"/><path class="i" d="M803.984,146.221a3.621,3.621,0,0,0-.735-3.308,1.431,1.431,0,0,0-.974-.415,3.344,3.344,0,0,1-.812.043c-.793-.188-.791-.818-1.519-1.1-.542-.21-1.118.219-1.7.3a3.215,3.215,0,0,1-1.294-.2c-1.193-.332-2.268-.962-3.5-1.2a5.568,5.568,0,0,0-3.134.231,4.425,4.425,0,0,0-2.3,2.305,3.31,3.31,0,0,0-.292,1.97c-.1-.542-1.176-.051-1.36.145-.723.771-2.543,3.026-2.281,4.007.207.777-.436,1.482-.253,2.268.217.936,2.84,1.478,3.31,2.331a2.8,2.8,0,0,0,2.814,1.37,8.915,8.915,0,0,1-.484-2.661c.021-.909-.9-5.089,3.937-5.6,1.922-.205,4.074,1.446,5.964,1.663a6.845,6.845,0,0,0,2.686-.246,4.209,4.209,0,0,0,1.808-1.7A1.414,1.414,0,0,0,803.984,146.221Z" transform="translate(-779.443 -137.801)"/><path class="i" d="M779.758,134.043c1.189-.636,1.535-2.073,1.656-3.349.132-1.388.106-1.635-1.143-2.613a7.727,7.727,0,0,0-1.676-.781c-3.021-1.012-6.437-1.74-9.6-.87a9.116,9.116,0,0,0-5.917,5.721,11.745,11.745,0,0,0-.8,4.135c-.007,1.538.632,3.245-.448,4.6a3.552,3.552,0,0,0,1.186-.113c-1.657.241-4.154.651-4.214,2.625a4.18,4.18,0,0,0,1.083,2.341,2.6,2.6,0,0,1,.6,2.425c-.444,1.01-1.987,1.408-2.186,2.486-.236,1.282,1.058,1.868,1.581,2.866.658,1.258.027,2.72-.123,4.024-.135,1.157,1.007,1.688,1.752,2.379,2.16,2,2.133,4.275-.231,6.487-.048.044-.029.132.005.186a.285.285,0,0,0,.183.1c3.054.747,7.021-2.011,7.725-4.761.318-1.239-.492-2.4-.137-3.588.381-1.28,1.905-1.76,2.92-2.5,1.868-1.365,3.865-3.729,3.59-6.092a7.656,7.656,0,0,0-1.712-4.233c-.928-1.027-3.7-1.587-3.67-3.122.012-.678.6-1.2,1.037-1.743,1.116-1.369-1.024-2.561.032-3.276a5.917,5.917,0,0,1,2.312-.921,4.871,4.871,0,0,0,2.452-.863c.637-.54,1.517-1.76,2.5-1.678a3.525,3.525,0,0,0,3.281-1.172" transform="translate(-758.274 -126.043)"/></g><path class="l" d="M785.611,289.681c-.439-3.928,1.593-10.181-.858-13.371a3.234,3.234,0,0,0-.885-.866c-4.609-2.7-7.8,1.5-9.272,5.193-1.276,3.2-1.119,6.153-1.215,9.5a57.224,57.224,0,0,1-3.353,16.471c-.639,1.91-.808,4.135,1,4.426,2.442.391,2.968-2.42,5.3-3.146,2.129-.663,3.848-.256,6.174-.137,1.153.06,4.921-.649,4.692-2.655-.545-4.752-1.362-8.851-1.389-12.161A31.672,31.672,0,0,0,785.611,289.681Z" transform="translate(-755.94 -249.201)"/><path class="h" d="M811.277,299.153s-1.329,5.794-2.729,12.857a24.157,24.157,0,0,0,.677,12.392c.3.779.613,1.557.952,2.31a6.288,6.288,0,0,1,.624,4.081,4.031,4.031,0,0,0,1.235,3.571,25.14,25.14,0,0,1,2.218,2.105c.1.13.263.277.412.2.126-.063.121-.231.1-.364q-.3-1.8-.607-3.6a1.734,1.734,0,0,1-.021-.707.641.641,0,0,1,.492-.489,1.046,1.046,0,0,1,.793.364c.335.3.567,1.4,1.186.981.26-1.053-.784-3.038-1.43-3.9-.636-.971-1.852-.776-2.23-1.811-.407-1.118-.812-2.233-1.2-3.354-2.785-11.124,1.141-15.692,1.141-15.692s-.861-.719-.246-6.247S811.277,299.153,811.277,299.153Z" transform="translate(-787.844 -268.973)"/><path class="g" d="M810.066,303.685s3.192-10.215-1.288-10.027-5.938,11.985-5.938,11.985l7.348-.41Z" transform="translate(-783.513 -265.014)"/></g></g></svg>