<svg xmlns="http://www.w3.org/2000/svg" width="168.753" height="48.703" viewBox="0 0 168.753 48.703"><defs><style>.a{fill:#b603c9;}.b{fill:#383838;font-size:19px;font-family:Muli-Bold, Muli;font-weight:700;letter-spacing:0.2em;}</style></defs><g transform="translate(-0.168 0.5)"><g transform="translate(0.168 -0.5)"><path class="a" d="M22.987,46.678a1.715,1.715,0,0,1-2.3.429,53.18,53.18,0,0,1-9.109-7.651,53.694,53.694,0,0,1-9.092,7.685A1.715,1.715,0,0,1,.6,44.4a49.336,49.336,0,0,0,8.8-7.5,28.58,28.58,0,0,1-6.09-14.135C1.716,10.293,9.8.961,10.173.566A1.715,1.715,0,0,1,11.374,0h.412a1.613,1.613,0,0,1,1.235.566c.343.395,8.44,9.727,6.862,22.2a22.3,22.3,0,0,1-3.139,9.555c-1.424,2.35-3.98.669-3.139-1.132a23.759,23.759,0,0,0,3-8.8A25.32,25.32,0,0,0,14.118,8.474a28.871,28.871,0,0,0-2.539-4.34,28.871,28.871,0,0,0-2.539,4.34A25.32,25.32,0,0,0,6.57,22.387a24.7,24.7,0,0,0,4.992,11.82h0c.309.463,2.179,2.659,2.179,2.659h0l.429.463a50.846,50.846,0,0,0,8.371,7.033,1.658,1.658,0,0,1,.446,2.316Z" transform="translate(-0.168 0.858)"/><g transform="translate(35.171)"><text class="b" transform="translate(0 19)"><tspan x="0" y="0">THE </tspan></text><text class="b" transform="translate(-0.419 43.703)"><tspan x="0" y="0">FAITHFULS</tspan></text></g></g></g></svg>