<svg xmlns="http://www.w3.org/2000/svg" width="47" height="47" viewBox="0 0 47 47"><defs><style>.a{fill:#faccff;}.b{fill:#b603c9;opacity:0.9;}.c,.d{stroke:none;}.d{fill:#151c4d;}</style></defs><g transform="translate(-131 -4038)"><circle class="a" cx="23.5" cy="23.5" r="23.5" transform="translate(131 4038)"/><g class="b" transform="translate(128.63 4031.511)"><path class="c" d="M37.62,35.131c-1.317.055-2.689-.769-3.853-1.3A3.24,3.24,0,0,1,31.549,31.5a52.266,52.266,0,0,1-2.367-7.547c-.312-1.338-.558-2.686-.776-4.041a3.121,3.121,0,0,0-.787-2.079,1.2,1.2,0,0,0-1.733.066,1.248,1.248,0,0,0-1.75-.066,3.217,3.217,0,0,0-.783,2.079c-.229,1.355-.468,2.7-.78,4.041a52.253,52.253,0,0,1-2.4,7.547,3.364,3.364,0,0,1-2.218,2.336c-1.171.53-2.547,1.355-3.857,1.3a.731.731,0,0,0-.728.728c.087,1.615.173,3.233.2,4.851a.745.745,0,0,0,.728.728q3.743.1,7.482.049a.693.693,0,0,0,.693-.676c1.04-.956,2.616-1.04,3.382-2.249.835,1.23,2.547.943,3.372,2.148a.693.693,0,0,0,.693.776q3.743.052,7.478-.049a.745.745,0,0,0,.728-.728c.028-1.618.118-3.237.2-4.851A.731.731,0,0,0,37.62,35.131Zm-22.6,4.851c-.031-1.15-.087-2.3-.149-3.465a11.719,11.719,0,0,0,3.2-1.161c.055,1.712.4,3.545,1.594,4.654-1.546.031-3.095.021-4.64-.017Zm9.828-2.772c-.367,1.182-1.989,1.556-3.074,2.329h0c-2.176-.516-2.27-3.015-2.246-4.851a4.185,4.185,0,0,0,1.954-2.505,52.179,52.179,0,0,0,2.117-6.3q.447-1.684.78-3.393c.094-.478.187-3.008.561-3.244,0,0,.177,2.814.177,3.074v3.7q0,3.327-.028,6.653a17.264,17.264,0,0,1-.243,4.536Zm3,1.015c-1.494-.693-1.161-3.056-1.189-4.5-.038-2.013-.038-4.027-.045-6.037,0-.721-.024-1.459-.052-2.2V22.3c0-.582.038-1.22.042-1.85a3.919,3.919,0,0,1,.049-.5c.076-.561-.024-.894.253-.291a10.065,10.065,0,0,1,.295,1.878c.2,1.144.444,2.28.721,3.41a52.374,52.374,0,0,0,2.114,6.636c.575,1.455.946,2.408,2.19,3.119.024,1.781-.073,4.158-2.079,4.779a6.34,6.34,0,0,0-2.3-1.254Zm4.217,1.816c1.192-1.105,1.542-2.935,1.6-4.643a10.7,10.7,0,0,0,3.192,1.154C36.8,37.7,36.743,38.846,36.712,40c-1.549.035-3.095.045-4.643.042Z"/><path class="d" d="M 32.47106552124023 41.50416946411133 C 31.62109756469727 41.50416946411133 30.770751953125 41.49826049804688 29.92024993896484 41.48644638061523 C 29.9185848236084 41.48645782470703 29.91692733764648 41.48646545410156 29.91526412963867 41.48646545410156 C 29.7179126739502 41.48646545410156 29.52980995178223 41.40232467651367 29.39826965332031 41.25498580932617 C 29.26560974121094 41.10641860961914 29.20328903198242 40.9079475402832 29.22719955444336 40.7102165222168 C 28.40245056152344 39.50430679321289 26.69059944152832 39.79190826416016 25.85547065734863 38.56173706054688 C 25.08963012695313 39.77112579345703 23.51292037963867 39.85428619384766 22.47333908081055 40.81070709228516 C 22.46393203735352 41.18663024902344 22.15650177001953 41.48644638061523 21.78049468994141 41.48644638061523 C 21.78042602539063 41.48644638061523 21.78033828735352 41.48644638061523 21.78026962280273 41.48644638061523 C 20.9304027557373 41.49826431274414 20.08074569702148 41.50416946411133 19.23060989379883 41.50416946411133 C 17.58725738525391 41.50416946411133 15.94305515289307 41.48208236694336 14.29869937896729 41.43792724609375 C 13.90065002441406 41.42877578735352 13.58014011383057 41.10826873779297 13.57098960876465 40.7102165222168 C 13.54327011108398 39.0919189453125 13.45662975311279 37.47363662719727 13.36999988555908 35.85880661010742 C 13.37189960479736 35.45768737792969 13.69659996032715 35.13299560546875 14.0977201461792 35.13108825683594 C 14.13993263244629 35.13287353515625 14.1820707321167 35.13374710083008 14.22441101074219 35.13374328613281 C 15.49590492248535 35.13368606567383 16.82106590270996 34.34471130371094 17.95458984375 33.83160781860352 C 19.27832984924316 33.2286491394043 19.61445999145508 32.88211822509766 20.1723804473877 31.49599647521973 C 21.16264915466309 29.0445671081543 21.96544075012207 26.52151679992676 22.57382965087891 23.94858741760254 C 22.88570022583008 22.61097717285156 23.12480926513672 21.26297760009766 23.35351943969727 19.90804672241211 C 23.47134017944336 19.21498680114746 23.52677917480469 18.33133697509766 24.13668060302734 17.82887649536133 C 24.37582778930664 17.61031913757324 24.67726707458496 17.50223731994629 24.97797584533691 17.50223731994629 C 25.31012725830078 17.50223731994629 25.64138031005859 17.6341381072998 25.88665008544922 17.89471817016602 C 26.10317993164063 17.64859771728516 26.41127014160156 17.502197265625 26.73884010314941 17.48974800109863 C 26.75401496887207 17.48917007446289 26.7691650390625 17.48888397216797 26.78429222106934 17.48888397216797 C 27.0957088470459 17.48888397216797 27.39558601379395 17.61050415039063 27.61929893493652 17.82887649536133 C 28.22918891906738 18.310546875 28.29157066345215 19.1941967010498 28.40592002868652 19.90804672241211 C 28.62422943115234 21.26297760009766 28.87026977539063 22.61097717285156 29.1821403503418 23.9485969543457 C 29.77931022644043 26.52056694030762 30.57049942016602 29.04359817504883 31.54894065856934 31.49599647521973 C 32.13457870483398 32.96182632446289 32.41526031494141 33.21824645996094 33.76673126220703 33.83160781860352 C 34.89361953735352 34.34474182128906 36.21516799926758 35.13378524780273 37.4928092956543 35.13374328613281 C 37.53527069091797 35.13374328613281 37.57778549194336 35.13286972045898 37.62014007568359 35.13108825683594 C 38.01311111450195 35.14413833618164 38.32540893554688 35.46561813354492 38.32706069946289 35.85880661010742 C 38.24388885498047 37.47363662719727 38.15380096435547 39.0919189453125 38.12606811523438 40.7102165222168 C 38.11690902709961 41.10826873779297 37.79640960693359 41.42877578735352 37.39836120605469 41.43792724609375 C 35.75689697265625 41.48208999633789 34.11453628540039 41.50416946411133 32.47106552124023 41.50416946411133 Z M 32.06872940063477 40.03794860839844 L 32.06872940063477 40.04141616821289 C 32.06996536254883 40.0402717590332 32.07122039794922 40.03910446166992 32.07245635986328 40.03795623779297 C 32.25672149658203 40.03836441040039 32.4407844543457 40.03857803344727 32.62496185302734 40.03857803344727 C 33.98781967163086 40.03857803344727 35.3487434387207 40.0268669128418 36.71223068237305 39.99636840820313 C 36.7434196472168 38.84588623046875 36.79539108276367 37.69887542724609 36.85776901245117 36.5518684387207 C 35.74541854858398 36.40632629394531 34.68503952026367 35.89345550537109 33.66624069213867 35.39791870117188 C 33.61084747314453 37.10454559326172 33.26154708862305 38.93216323852539 32.07245635986328 40.03795623779297 C 32.07122802734375 40.0379524230957 32.0699577331543 40.03794860839844 32.06872940063477 40.03794860839844 Z M 18.06547927856445 35.35633850097656 C 17.05014038085938 35.82415771484375 15.9758996963501 36.36820602416992 14.87047004699707 36.51720809936523 C 14.9328498840332 37.68501663208008 14.98828983306885 38.83202743530273 15.01947975158691 39.98250579833984 L 15.01947975158691 39.9929084777832 C 15.9438362121582 40.01570129394531 16.8693790435791 40.02857971191406 17.79472541809082 40.02857971191406 C 18.41656494140625 40.02857971191406 19.03833961486816 40.02276229858398 19.65950965881348 40.01022720336914 C 18.46744918823242 38.90133666992188 18.12092018127441 37.06819915771484 18.06547927856445 35.35633850097656 Z M 24.94062042236328 19.24271774291992 C 24.56637001037598 19.47835731506348 24.47281074523926 22.00801658630371 24.37924957275391 22.48622703552246 C 24.157470703125 23.62515640258789 23.89756965637207 24.75599670410156 23.59955024719238 25.87874794006348 C 23.02852058410645 28.02275657653809 22.32131958007813 30.1281566619873 21.48225975036621 32.18212890625 C 20.93127059936523 33.53359603881836 20.51197052001953 34.1296272277832 19.52783012390137 34.68753814697266 C 19.50357055664063 36.52414703369141 19.59713935852051 39.02261734008789 21.77334022521973 39.53894805908203 C 22.85798072814941 38.76618576049805 24.47974014282227 38.39193725585938 24.84705924987793 37.21027755737305 L 24.84705924987793 37.20680618286133 C 25.26983070373535 35.84148788452148 25.06537055969238 34.0776481628418 25.08963012695313 32.67073822021484 C 25.10811042785645 30.45294761657715 25.11734962463379 28.23515701293945 25.11734962463379 26.01736640930176 C 25.11734962463379 24.78371810913086 25.11734962463379 23.55007743835449 25.11734962463379 22.31642723083496 C 25.11734962463379 22.05653762817383 24.94062042236328 19.24271774291992 24.94062042236328 19.24271774291992 Z M 27.85146903991699 38.22213745117188 C 28.80443000793457 38.66222763061523 29.52867889404297 38.80430603027344 30.14896011352539 39.47656631469727 C 32.15536880493164 38.85628890991211 32.25238800048828 36.47909545898438 32.22813034057617 34.69792556762695 C 30.98408889770508 33.987548828125 30.61330986022949 33.03458786010742 30.03807067871094 31.57918739318848 C 29.18700981140137 29.41651725769043 28.4808406829834 27.19960784912109 27.92424011230469 24.9431266784668 C 27.64700889587402 23.81343650817871 27.40444946289063 22.67681694030762 27.20346069335938 21.53327751159668 C 27.11682891845703 21.04119682312012 27.10989952087402 20.10210800170898 26.90891075134277 19.65508651733398 C 26.80481338500977 19.42867851257324 26.75397300720215 19.33418846130371 26.72703552246094 19.33418846130371 C 26.6822338104248 19.33418846130371 26.70355224609375 19.59557914733887 26.65593910217285 19.9461669921875 C 26.6351490020752 20.10210800170898 26.60742950439453 20.28229713439941 26.60742950439453 20.44863700866699 C 26.60396003723145 21.07932662963867 26.56583976745605 21.71693801879883 26.56583976745605 22.29910659790039 C 26.56583976745605 23.35948753356934 26.56583976745605 24.41986656188965 26.56583976745605 25.48024749755859 C 26.59357070922852 26.22528648376465 26.61783027648926 26.96339797973633 26.61783027648926 27.68416786193848 C 26.6247501373291 29.69404792785645 26.6247501373291 31.70737648010254 26.66287040710449 33.72071838378906 C 26.69059944152832 35.16921615600586 26.35792922973633 37.53253555297852 27.85146903991699 38.2255973815918 L 27.85146903991699 38.22213745117188 Z"/></g></g></svg>