<svg xmlns="http://www.w3.org/2000/svg" width="47" height="47" viewBox="0 0 47 47"><defs><style>.a{fill:#faccff;}.b{opacity:0.9;}.c{fill:none;stroke:#151c4d;stroke-linecap:round;stroke-linejoin:round;stroke-width:2px;}</style></defs><g transform="translate(-131 -4421)"><circle class="a" cx="23.5" cy="23.5" r="23.5" transform="translate(131 4421)"/><g class="b" transform="translate(142 4433)"><path class="c" d="M23.058,25.779a6.279,6.279,0,1,0-12.558,0" transform="translate(-4.301 -7.467)"/><path class="c" d="M18,3v8.791" transform="translate(-5.521 -3)"/><path class="c" d="M6.33,15.33l1.783,1.783" transform="translate(-2.286 -6.081)"/><path class="c" d="M1.5,27H4.012" transform="translate(-1.5 -8.849)"/><path class="c" d="M31.5,27h2.512" transform="translate(-9.055 -8.849)"/><path class="c" d="M27.54,17.113l1.783-1.783" transform="translate(-8.41 -6.081)"/><path class="c" d="M26.457,33H1.5" transform="translate(-1.5 -10.312)"/><path class="c" d="M12,8.023,17.023,3l5.023,5.023" transform="translate(-4.545 -3)"/></g></g></svg>