<svg xmlns="http://www.w3.org/2000/svg" width="47" height="47" viewBox="0 0 47 47"><defs><style>.a{fill:#faccff;}.b{fill:#151c4d;opacity:0.9;}</style></defs><g transform="translate(-131 -4200)"><circle class="a" cx="23.5" cy="23.5" r="23.5" transform="translate(131 4200)"/><path class="b" d="M28.689,12.044a1.56,1.56,0,0,0-1.294-.686H23.153a5.677,5.677,0,0,0-.936-3.119,1.154,1.154,0,0,0-.234-1.56L19.6,4.729a2.491,2.491,0,1,0-1.56,1.794L20.47,8.535a1.061,1.061,0,0,0,1.107.187,5.006,5.006,0,0,1,.8,2.636H5.56a1.56,1.56,0,0,0-1.45,2.137l3.119,7.8a1.56,1.56,0,0,0,1.45.983h2.948l1.731,7.8h0a3.119,3.119,0,0,0-3.119,3.119H22.716A3.119,3.119,0,0,0,19.6,30.073l1.731-7.8h2.948a1.56,1.56,0,0,0,1.45-.983l3.119-7.8A1.56,1.56,0,0,0,28.689,12.044ZM18.037,30.073H14.918L12.188,17.6h8.593Zm6.238-9.358h-2.6l.624-2.776a1.56,1.56,0,0,0-1.56-1.9H12.188a1.56,1.56,0,0,0-1.56,1.9l.655,2.776h-2.6l-3.119-7.8H27.395Z" transform="translate(138.001 4206)"/></g></svg>