<svg xmlns="http://www.w3.org/2000/svg" width="37.496" height="30" viewBox="0 0 37.496 30"><defs><style>.a{fill:#b603c9;}</style></defs><path class="a" d="M35.771,21.873a6.874,6.874,0,0,0,0-2.5l1.512-.873a.424.424,0,0,0,.193-.5,8.793,8.793,0,0,0-1.945-3.363A.427.427,0,0,0,35,14.561l-1.512.873a6.879,6.879,0,0,0-2.162-1.248V12.439A.427.427,0,0,0,31,12.023a8.84,8.84,0,0,0-3.879,0,.427.427,0,0,0-.334.416v1.746a6.879,6.879,0,0,0-2.162,1.248l-1.512-.873a.429.429,0,0,0-.527.082,8.793,8.793,0,0,0-1.945,3.363.432.432,0,0,0,.193.5l1.512.873a6.873,6.873,0,0,0,0,2.5l-1.512.873a.424.424,0,0,0-.193.5,8.837,8.837,0,0,0,1.945,3.363.427.427,0,0,0,.527.082l1.512-.873a6.879,6.879,0,0,0,2.162,1.248v1.746a.427.427,0,0,0,.334.416,8.84,8.84,0,0,0,3.879,0,.427.427,0,0,0,.334-.416V27.064a6.879,6.879,0,0,0,2.162-1.248L35,26.689a.429.429,0,0,0,.527-.082,8.793,8.793,0,0,0,1.945-3.363.432.432,0,0,0-.193-.5l-1.512-.873Zm-6.709,1.594A2.842,2.842,0,1,1,31.9,20.625,2.844,2.844,0,0,1,29.063,23.467ZM13.125,15a7.5,7.5,0,1,0-7.5-7.5A7.5,7.5,0,0,0,13.125,15ZM24.914,28.271c-.135-.07-.27-.152-.4-.229l-.463.27a2.3,2.3,0,0,1-2.842-.428,10.684,10.684,0,0,1-2.355-4.078A2.292,2.292,0,0,1,19.9,21.129l.463-.27q-.009-.229,0-.457l-.463-.27a2.289,2.289,0,0,1-1.049-2.678c.053-.17.129-.34.188-.51-.223-.018-.439-.07-.668-.07H17.4a10.2,10.2,0,0,1-8.543,0H7.875A7.877,7.877,0,0,0,0,24.75v2.437A2.813,2.813,0,0,0,2.813,30H23.438a2.809,2.809,0,0,0,1.594-.5,2.282,2.282,0,0,1-.117-.691Z"/></svg>