<svg xmlns="http://www.w3.org/2000/svg" width="285.64" height="175.657" viewBox="0 0 285.64 175.657"><defs><style>.a{fill:#dce6ef;}.b{fill:#6aa5fe;}.c,.e,.g,.i,.n,.o,.p{fill:none;}.c,.n{stroke:#1a55b5;}.c,.e,.g,.i{stroke-linecap:round;stroke-linejoin:round;}.c,.e{stroke-width:0.87px;}.d{fill:#ffc957;}.e,.i{stroke:#6aa5fe;}.f{fill:#1a55b5;}.g{stroke:#2a294f;stroke-width:0.78px;}.h{fill:#b603c9;}.j{fill:#527ee9;}.k{fill:#f3f4f6;}.l{fill:#2c6bc6;}.m{fill:#cde1f9;}.n,.o,.p{stroke-miterlimit:10;}.o{stroke:#f3f4f6;}.o,.p{stroke-width:4px;}.p{stroke:#ff746f;}.q{fill:#ff746f;}.r{fill:#2a294f;}.s{fill:#fe9280;}.t{fill:#e86767;}.u{fill:#fff;}.v,.y,.z{fill:#777470;}.v{opacity:0.2;}.w{fill:#fff4dd;}.x{fill:#d3eaf5;}.y{opacity:0.05;}.z{opacity:0.15;}</style></defs><g transform="translate(0 0.397)"><g transform="translate(0 -0.397)"><path class="a" d="M350.429,194.557c-2.159-5.54-3.764-11.422-5.523-17.645-1.176-4.182-3.1-8.869-7.246-10.187-4.029-1.282-8.369,1.376-10.852,4.805s-3.729,7.581-5.852,11.246c-3.841,6.634-10.652,9.41-16.28,3.582-8.04-8.334-11.657-19.691-16.757-29.855-3.7-7.375-6.8-16.015-11.457-22.815-7.111-10.369-16.862-19.209-29.825-19.209C238.4,115.721,231.174,123,226.275,132.1s-7.758,19.915-10.193,30.708c-4.435,19.627-7.681,39.712-10.922,59.768l163.578-1.917c-.647,0-4.658-5.352-5.429-6.093A53.9,53.9,0,0,1,350.429,194.557Z" transform="translate(-84.494 -46.915)"/><path class="b" d="M383.233,239.207c-.318,6.358-7.24,17.474-13.6,17.156s-9.746-11.957-9.41-18.321,7.093-38.177,13.451-37.854S383.556,232.849,383.233,239.207Z" transform="translate(-148.347 -82.212)"/><line class="c" x1="3.205" y2="51.528" transform="translate(221.799 122.111)"/><path class="d" d="M372.154,249.467a44.166,44.166,0,0,0-3.217,10,8.377,8.377,0,0,0,.247,5.293,6.3,6.3,0,0,0,4.741,3.1c4.705.776,9.452-2.117,12.222-6.029s3.97-8.681,5.07-13.339a53.251,53.251,0,0,1,3.358-10.816c.7-1.47,4.8-7.128,2.858-8.593-2.653-2.088-10.334.182-15.257,5.552a57.345,57.345,0,0,0-10.022,14.833Z" transform="translate(-151.819 -93.796)"/><path class="e" d="M377.63,271.04s5.705-22.215,19.48-34.96" transform="translate(-155.525 -96.995)"/><path class="f" d="M423.09,253.26a5.611,5.611,0,0,1-2.235,1.941c-1.029.588-2.117,1.082-3.17,1.576a35.291,35.291,0,0,0-4.052,2.094,13.582,13.582,0,0,0-2.482,1.976,31.49,31.49,0,0,1,3.935-6.693c2.011-2.588,4.076-3.905,6.14-3.905h.147a2.317,2.317,0,0,1,1.476.471A2.117,2.117,0,0,1,423.09,253.26Z" transform="translate(-169.33 -102.83)"/><path class="f" d="M425.547,276.988a5.629,5.629,0,0,1-2.853.8c-1.176.082-2.353.071-3.529.065a35.806,35.806,0,0,0-4.552.159,13.844,13.844,0,0,0-3.094.723,31.808,31.808,0,0,1,6.423-4.364c2.941-1.476,5.352-1.764,7.217-.9l.129.065a2.306,2.306,0,0,1,1.135,1.059A2.129,2.129,0,0,1,425.547,276.988Z" transform="translate(-169.482 -112.195)"/><path class="f" d="M420.647,287.811a3.835,3.835,0,0,1-1.794-.941c-.623-.506-1.217-1.076-1.794-1.623a24.612,24.612,0,0,0-2.353-2.059,9.275,9.275,0,0,0-1.876-1.088,21.7,21.7,0,0,1,5.24.841c2.153.635,3.5,1.623,4.011,2.941l.035.094a1.588,1.588,0,0,1,.071,1.053,1.435,1.435,0,0,1-1.541.782Z" transform="translate(-170.022 -115.948)"/><path class="g" d="M399.81,278.132s.065-13.592,16.668-25.132" transform="translate(-164.659 -103.963)"/><path class="g" d="M399.81,288.086a20.916,20.916,0,0,1,18.915-10.916" transform="translate(-164.659 -113.918)"/><path class="g" d="M412.6,282.329s2.676-.194,8.234,4.023" transform="translate(-169.927 -116.042)"/><path class="a" d="M92.517,242.584c-3.841-14.5-7.7-29.014-12.21-43.059-2.541-7.917-5.346-15.81-9.246-22.144S62,166.37,56.81,166.4c-7.993,1.529-13.145,9.434-16.521,18.174-2.217,5.729-3.294,12.669-4.864,18.727-2.159,8.34-3.288,17.409-7.44,24.7-2.905,5.111-7.37,3.805-10.381-.782-1.659-2.535-2.829-5.546-4.705-7.858S8.1,215.546,5.74,217.011s-3.153,5.293-3.476,8.616c-.471,4.929-.894,9.593-1.676,14.057-.171.97-.365,1.935-.588,2.888Z" transform="translate(0 -68.298)"/><path class="h" d="M73.435,232.893c-2.4-2.77-5.435-5.152-6.393-8.646-.694-2.547-.147-5.246.129-7.875s.176-5.535-1.523-7.558c-1.406-1.67-3.617-2.394-5.746-2.853s-4.352-.747-6.24-1.829c-3.07-1.764-2.458-4.752-4.117-7.375-1.853-2.941-6.152-6.7-9.84-4.746-3.9,2.07-3.282,8.358-.688,11.14,1.723,1.841,3.929,3.605,4.182,6.117.382,3.776-3.947,7.181-2.753,10.787.876,2.658,4.235,3.576,5.882,5.84s1.306,5.376.341,7.975-2.488,5.005-3.088,7.717c-1.229,5.54,3.123,9.369,8.075,10.587,4.558,1.141,14.38.588,14.38.588a18.821,18.821,0,0,0,9.316-7.646,9.787,9.787,0,0,0,.529-8.469A14.115,14.115,0,0,0,73.435,232.893Z" transform="translate(-15.207 -78.622)"/><path class="i" d="M49.06,202.55s16.768,25.879,18.6,54.663" transform="translate(-20.205 -83.186)"/><path class="b" d="M23.374,261.752a1.765,1.765,0,0,1,1.117-.353H24.6c1.559,0,3.123.988,4.646,2.941A23.867,23.867,0,0,1,32.22,269.4a10.339,10.339,0,0,0-1.882-1.5,27.911,27.911,0,0,0-3.058-1.582c-.8-.371-1.623-.753-2.4-1.176a4.246,4.246,0,0,1-1.688-1.47,1.588,1.588,0,0,1,.182-1.917Z" transform="translate(-9.453 -107.422)"/><path class="b" d="M19.226,279.744a1.765,1.765,0,0,1,.859-.8l.094-.047c1.412-.671,3.247-.441,5.464.682a23.778,23.778,0,0,1,4.852,3.3,10.2,10.2,0,0,0-2.353-.547,27.116,27.116,0,0,0-3.447-.124c-.876,0-1.764,0-2.676-.053a4.17,4.17,0,0,1-2.153-.588,1.594,1.594,0,0,1-.641-1.823Z" transform="translate(-7.886 -114.475)"/><path class="b" d="M25.358,289.153a1.176,1.176,0,0,1,.053-.8s0-.047,0-.071a4.2,4.2,0,0,1,3.035-2.217,15.968,15.968,0,0,1,3.964-.635,6.6,6.6,0,0,0-1.417.823,17.872,17.872,0,0,0-1.764,1.553c-.435.412-.888.841-1.359,1.229a2.9,2.9,0,0,1-1.353.712,1.1,1.1,0,0,1-1.159-.594Z" transform="translate(-10.424 -117.319)"/><path class="g" d="M38.454,282.423s-.047-10.275-12.6-19" transform="translate(-10.646 -108.255)"/><path class="g" d="M37.264,289.964a15.811,15.811,0,0,0-14.3-8.234" transform="translate(-9.456 -115.796)"/><path class="g" d="M33.236,285.6s-2.023-.147-6.246,3.041" transform="translate(-11.116 -117.389)"/><rect class="b" width="121.784" height="161.184" rx="9.45" transform="translate(46.247 12.99)"/><path class="j" d="M78.63,88.45V204.8a5.558,5.558,0,0,0,5.558,5.558H194.85a5.558,5.558,0,0,0,5.558-5.558V181.867Z" transform="translate(-32.383 -36.194)"/><rect class="k" width="107.632" height="146.31" rx="3.86" transform="translate(53.322 20.425)"/><path class="f" d="M175.4,9.547V9.094a9.258,9.258,0,1,0-18.509,0v.453H143.33V23.663h45.682V9.547Z" transform="translate(-59.03 0.397)"/><path class="l" d="M143.32,16.51V30.62H189Z" transform="translate(-59.026 -6.566)"/><circle class="j" cx="5.199" cy="5.199" r="5.199" transform="matrix(0.923, -0.385, 0.385, 0.923, 100.335, 6.693)"/><path class="b" d="M174.842,9.49a5.2,5.2,0,1,0,7.346,7.358Z" transform="translate(-71.379 -3.675)"/><rect class="m" width="45.676" height="0.97" transform="translate(84.3 24.054)"/><rect class="n" width="17.321" height="17.321" transform="translate(65.756 43.592)"/><path class="o" d="M120.42,85.6l5.3,4.164L136.488,79.38" transform="translate(-49.594 -32.459)"/><path class="p" d="M118.42,83.6l5.3,4.164L134.488,77.38" transform="translate(-48.771 -31.635)"/><path class="b" d="M211.376,81.166H154.913a.671.671,0,0,1-.653-.635h0a.671.671,0,0,1,.671-.671h56.463a.67.67,0,0,1,.653.67h0A.67.67,0,0,1,211.376,81.166Z" transform="translate(-63.531 -32.657)"/><path class="b" d="M211.376,86.166H154.913a.671.671,0,0,1-.653-.635h0a.671.671,0,0,1,.671-.67h56.463a.67.67,0,0,1,.653.67h0a.67.67,0,0,1-.67.635Z" transform="translate(-63.531 -34.716)"/><path class="b" d="M211.376,91.166H154.913a.671.671,0,0,1-.653-.635h0a.671.671,0,0,1,.671-.67h56.463a.67.67,0,0,1,.653.67h0A.67.67,0,0,1,211.376,91.166Z" transform="translate(-63.531 -36.775)"/><path class="b" d="M211.376,96.166H154.913a.67.67,0,0,1-.653-.635h0a.671.671,0,0,1,.671-.67h56.463a.67.67,0,0,1,.653.67h0A.67.67,0,0,1,211.376,96.166Z" transform="translate(-63.531 -38.834)"/><rect class="n" width="17.321" height="17.321" transform="translate(65.756 71.482)"/><path class="o" d="M120.42,133.017l5.3,4.158L136.488,126.8" transform="translate(-49.594 -51.989)"/><path class="p" d="M118.42,131.017l5.3,4.158L134.488,124.8" transform="translate(-48.771 -51.165)"/><path class="b" d="M211.363,128.565H154.9a.671.671,0,0,1-.67-.665h0a.67.67,0,0,1,.67-.67h56.463a.67.67,0,0,1,.67.67h0A.67.67,0,0,1,211.363,128.565Z" transform="translate(-63.519 -52.166)"/><path class="b" d="M211.363,133.565H154.9a.671.671,0,0,1-.67-.665h0a.67.67,0,0,1,.67-.671h56.463a.67.67,0,0,1,.67.671h0A.67.67,0,0,1,211.363,133.565Z" transform="translate(-63.519 -54.225)"/><path class="b" d="M211.363,138.565H154.9a.67.67,0,0,1-.67-.665h0a.67.67,0,0,1,.67-.671h56.463a.67.67,0,0,1,.67.671h0A.67.67,0,0,1,211.363,138.565Z" transform="translate(-63.519 -56.284)"/><path class="b" d="M211.363,143.565H154.9a.671.671,0,0,1-.67-.665h0a.67.67,0,0,1,.67-.67h56.463a.67.67,0,0,1,.67.67h0A.67.67,0,0,1,211.363,143.565Z" transform="translate(-63.519 -58.343)"/><rect class="n" width="17.321" height="17.321" transform="translate(65.756 99.373)"/><path class="o" d="M120.42,180.437l5.3,4.158,10.769-10.375" transform="translate(-49.594 -71.518)"/><path class="p" d="M118.42,178.437l5.3,4.158,10.769-10.375" transform="translate(-48.771 -70.695)"/><path class="b" d="M211.363,175.985H154.9a.67.67,0,0,1-.67-.671h0a.67.67,0,0,1,.67-.665h56.463a.671.671,0,0,1,.671.665h0A.67.67,0,0,1,211.363,175.985Z" transform="translate(-63.519 -71.695)"/><path class="b" d="M211.363,180.985H154.9a.67.67,0,0,1-.67-.671h0a.67.67,0,0,1,.67-.665h56.463a.67.67,0,0,1,.671.665h0A.67.67,0,0,1,211.363,180.985Z" transform="translate(-63.519 -73.755)"/><path class="b" d="M211.363,185.985H154.9a.67.67,0,0,1-.67-.671h0a.67.67,0,0,1,.67-.665h56.463a.671.671,0,0,1,.671.665h0A.67.67,0,0,1,211.363,185.985Z" transform="translate(-63.519 -75.814)"/><path class="b" d="M211.363,190.985H154.9a.67.67,0,0,1-.67-.671h0a.67.67,0,0,1,.67-.665h56.463a.671.671,0,0,1,.671.665h0A.67.67,0,0,1,211.363,190.985Z" transform="translate(-63.519 -77.873)"/><rect class="n" width="17.321" height="17.321" transform="translate(65.756 127.263)"/><path class="o" d="M120.42,227.857l5.3,4.158,10.769-10.375" transform="translate(-49.594 -91.048)"/><path class="p" d="M118.42,225.857l5.3,4.158,10.769-10.375" transform="translate(-48.771 -90.224)"/><path class="b" d="M211.363,223.405H154.9a.67.67,0,0,1-.67-.671h0a.67.67,0,0,1,.67-.665h56.463a.671.671,0,0,1,.671.665h0A.67.67,0,0,1,211.363,223.405Z" transform="translate(-63.519 -91.225)"/><path class="b" d="M211.363,228.405H154.9a.67.67,0,0,1-.67-.671h0a.671.671,0,0,1,.67-.665h56.463a.671.671,0,0,1,.671.665h0A.67.67,0,0,1,211.363,228.405Z" transform="translate(-63.519 -93.284)"/><path class="b" d="M211.363,233.405H154.9a.67.67,0,0,1-.67-.67h0a.67.67,0,0,1,.67-.665h56.463a.67.67,0,0,1,.671.665h0A.67.67,0,0,1,211.363,233.405Z" transform="translate(-63.519 -95.343)"/><path class="b" d="M211.363,238.405H154.9a.67.67,0,0,1-.67-.671h0a.67.67,0,0,1,.67-.665h56.463a.671.671,0,0,1,.671.665h0A.67.67,0,0,1,211.363,238.405Z" transform="translate(-63.519 -97.403)"/><line class="g" x2="284.738" transform="translate(0.512 174.169)"/><rect class="q" width="2.682" height="3.305" transform="translate(179.952 168.916)"/><path class="r" d="M301.116,291.14l1.4.435,1.306-.435,1.17,2.688H294.14l4.082-1.341Z" transform="translate(-121.14 -119.671)"/><path class="q" d="M353.1,290.105h2.688l-1-3.305H352.11Z" transform="translate(-145.015 -117.884)"/><path class="r" d="M355.246,291.14l-1.406.435-1.3-.435-1.17,2.688h10.846l-4.076-1.341Z" transform="translate(-144.71 -119.671)"/><path class="s" d="M291.507,93.8c-.365.276-3.664,2.223-3.664,2.223l-2.353-3,.7-3.417,5.041.312.882,2.553C292.33,93.08,291.954,93.457,291.507,93.8Z" transform="translate(-117.577 -36.672)"/><path class="t" d="M292.061,89.951l.765,2.241-2.353.935a2.1,2.1,0,0,1-1.406.1,2.129,2.129,0,0,1-1.559-2.317l.147-1.229Z" transform="translate(-118.402 -36.701)"/><path class="q" d="M293.32,93.324l2.017.294,1.106-1.894a.735.735,0,0,0-.229-1.012h0a.741.741,0,0,0-1.012.229Z" transform="translate(-120.802 -37.081)"/><path class="u" d="M283.2,109.1l-4.158,1.053-1.482,12.04,4.864.194Z" transform="translate(-114.312 -44.699)"/><path class="s" d="M378.58,115.691l-7.27-.941,1.664-13.21,7.264.912a6.658,6.658,0,0,1,5.776,7.44h0a6.658,6.658,0,0,1-7.434,5.8Z" transform="translate(-152.922 -41.585)"/><path class="v" d="M378.977,117.474l-7.24-.918-.376,3.011,7.27.918a6.67,6.67,0,0,0,7.452-7.3A6.664,6.664,0,0,1,378.977,117.474Z" transform="translate(-152.943 -46.379)"/><path class="d" d="M315.811,107.636l-77.1-9.946,1.659-13.21,77.107,9.946Z" transform="translate(-98.311 -34.559)"/><path class="w" d="M215.35,89.25l13.739,8.44,1.659-13.21Z" transform="translate(-88.691 -34.559)"/><path class="v" d="M215.35,92.59l13.739,8.44L229.5,97.8Z" transform="translate(-88.691 -37.899)"/><path class="r" d="M219.938,90.17l-4.588,1.423,4.094,2.511Z" transform="translate(-88.691 -36.903)"/><rect class="x" width="6.434" height="13.316" transform="matrix(0.992, 0.125, -0.125, 0.992, 219.155, 59.88)"/><rect class="x" width="2.2" height="14.457" transform="translate(223.439 59.806) rotate(7.17)"/><path class="v" d="M320.011,115.154l-81.3-10.475.406-3.229,81.307,10.475Z" transform="translate(-98.311 -41.548)"/><path class="y" d="M322.147,98.184,240.84,87.709l.406-3.229,81.307,10.475Z" transform="translate(-99.189 -34.559)"/><rect class="z" width="2.2" height="4.417" transform="translate(222.19 69.766) rotate(7.17)"/><path class="t" d="M334.79,177.383l1.088-2.817,3.67-.3a1.141,1.141,0,0,1,1.335.906h0a1.176,1.176,0,0,1-1.1,1.176Z" transform="translate(-137.881 -71.529)"/><path class="q" d="M331.272,172.075l1.9,2.794,3.6-.741-4.035-5.987-.771.512a2.47,2.47,0,0,0-.694,3.423Z" transform="translate(-136.263 -69.014)"/><path class="u" d="M335.566,163.2,347.8,150.38l-6.446-1.5-7.293,11.328Z" transform="translate(-137.581 -61.082)"/><path class="u" d="M349.206,147.708a2.788,2.788,0,1,0-.094-2.137,2.794,2.794,0,0,0,.094,2.137Z" transform="translate(-143.71 -58.963)"/><path class="u" d="M340.457,137.727l3.782-4.029-13.192-15.645a3.135,3.135,0,0,0-4.705-.376h0c-1.359,1.335-1.229,6.064.288,7.223Z" transform="translate(-134.015 -47.865)"/><rect class="q" width="5.446" height="8.638" transform="translate(189.319 72.394) rotate(-175.426)"/><path class="u" d="M279.66,128.256a2.429,2.429,0,1,0,1.767.593A2.435,2.435,0,0,0,279.66,128.256Z" transform="translate(-114.241 -52.586)"/><path class="u" d="M278.64,123.5l2.47,4.382,15.08-3.388c1.847-.471,2.847-4.964,2.117-6.729h0a3.129,3.129,0,0,0-4.488-1.5Z" transform="translate(-114.756 -47.469)"/><path class="u" d="M317.78,148.329l1.647-28.708a2.653,2.653,0,0,0-2.217-3.27l-13.451-.488a2.647,2.647,0,0,0-3.005,2.564L298,153.322Z" transform="translate(-122.73 -47.474)"/><path class="f" d="M304.917,171.08l3.1,9.658-1.376,59.9h-5.529L298,176.073l.423-4.993Z" transform="translate(-122.73 -70.225)"/><path class="j" d="M309.76,171.08l3.023,11.863h2.182l19.492,57.692h4.529l-13.722-61.727-2.641-7.828Z" transform="translate(-127.573 -70.225)"/><path class="q" d="M2.117,0h.588V5.152H2.117A2.117,2.117,0,0,1,0,3.035V2.123A2.117,2.117,0,0,1,2.117,0Z" transform="matrix(0.159, -0.987, 0.987, 0.159, 168.151, 55.074)"/><path class="f" d="M312,116.08l3.941.147-1.6,2.394v19.062l-2.311,4.87-2.129-5.864,2.964-18.221Z" transform="translate(-127.631 -47.574)"/><path class="f" d="M320.8,89.427a6.652,6.652,0,0,0-1.429-3.558,6.376,6.376,0,0,0-2.941-1.97,3.964,3.964,0,0,0-1.647-.218,3.958,3.958,0,0,1-2.094-.147,21.26,21.26,0,0,1-2.482-1.764,2.941,2.941,0,0,0-.641-.3h0a3.17,3.17,0,0,0-2.941.341,3.223,3.223,0,0,0-.994,1.176,4.07,4.07,0,0,0-.441,1.465,4.893,4.893,0,0,0,.735,2.941,5.746,5.746,0,0,0,2,1.923c-.029.212-.059.423-.071.641a6.47,6.47,0,0,0,12.228,3.305,6.781,6.781,0,0,0,.718-3.835ZM307.274,88.2a8.021,8.021,0,0,1-.847-1.135,4.57,4.57,0,0,1-.8-2.629A3.329,3.329,0,0,1,306.8,82a2.417,2.417,0,0,1,.953-.471,2.012,2.012,0,0,0-.494.306,3.388,3.388,0,0,0-1.012,2.388,5.717,5.717,0,0,0,1.823,4.629.3.3,0,0,0,0,.071,6.926,6.926,0,0,1-.818-.718Z" transform="translate(-125.687 -33.231)"/><path class="q" d="M326.568,101.119a1.229,1.229,0,1,0,.5-.8A1.235,1.235,0,0,0,326.568,101.119Z" transform="translate(-134.488 -40.988)"/><path class="q" d="M314.315,90.119a4.394,4.394,0,0,0-3.982,2.353l-.159.847-.124.753a.635.635,0,0,0,0,.106h0l-.353,2.1a5.446,5.446,0,0,0,4.258,6.305,5.323,5.323,0,0,0,6.217-4.346l.435-2.576h0S321.4,90.637,314.315,90.119Z" transform="translate(-127.511 -36.881)"/><path class="u" d="M316.469,101.386a7.522,7.522,0,0,0-2.664-.447.747.747,0,0,0-.312.812,1.265,1.265,0,0,0,.553.729,2.088,2.088,0,0,0,2.023.165,1.129,1.129,0,0,0,.588-.535A.588.588,0,0,0,316.469,101.386Z" transform="translate(-129.1 -41.325)"/><path class="f" d="M319.56,90.167a9.833,9.833,0,0,1,2.094.588,4.752,4.752,0,0,1,1.394.8c1.329,1.176.147,3.652-.312,4.952-.112.318-.241.694-.041.965a.688.688,0,0,0,.97,0,3.276,3.276,0,0,0,.588-.894,1.141,1.141,0,0,1,.829-.641l-.212-5.882s-3.7-.124-3.988-.135A4.422,4.422,0,0,0,319.56,90.167Z" transform="translate(-131.609 -36.8)"/></g></g></svg>