<svg xmlns="http://www.w3.org/2000/svg" width="167.734" height="47.374" viewBox="0 0 167.734 47.374"><defs><style>.a{fill:#b603c9;}.b{fill:#fff;}</style></defs><g transform="translate(-0.168 -0.358)"><g transform="translate(0.168 -0.5)"><path class="a" d="M22.987,46.678a1.715,1.715,0,0,1-2.3.429,53.18,53.18,0,0,1-9.109-7.651,53.694,53.694,0,0,1-9.092,7.685A1.715,1.715,0,0,1,.6,44.4a49.336,49.336,0,0,0,8.8-7.5,28.58,28.58,0,0,1-6.09-14.135C1.716,10.293,9.8.961,10.173.566A1.715,1.715,0,0,1,11.374,0h.412a1.613,1.613,0,0,1,1.235.566c.343.395,8.44,9.727,6.862,22.2a22.3,22.3,0,0,1-3.139,9.555c-1.424,2.35-3.98.669-3.139-1.132a23.759,23.759,0,0,0,3-8.8A25.32,25.32,0,0,0,14.118,8.474a28.871,28.871,0,0,0-2.539-4.34,28.871,28.871,0,0,0-2.539,4.34A25.32,25.32,0,0,0,6.57,22.387a24.7,24.7,0,0,0,4.992,11.82h0c.309.463,2.179,2.659,2.179,2.659h0l.429.463a50.846,50.846,0,0,0,8.371,7.033,1.658,1.658,0,0,1,.446,2.316Z" transform="translate(-0.168 0.858)"/><g transform="translate(35.171)"><path class="b" d="M4.636-11.514H.228v-2.014H11.533v2.014H7.106V0H4.636ZM28.8-13.528V0H26.372V-5.871H19.437V0H17.024V-13.528h2.413v5.662h6.935v-5.662Zm6.726,0h9.044v1.938h-6.65v3.743h6.251v1.938H37.924v3.971h6.65V0H35.53Z" transform="translate(0 19)"/><path class="b" d="M1.463-13.528H10.3v1.957H3.9v3.7H9.918V-5.89H3.9V0H1.463ZM24-3.173H17.385L16.017,0h-2.47l6.118-13.528H21.66L27.8,0H25.346Zm-.817-1.9-2.489-5.795L18.2-5.073Zm9.88-8.455h2.451V0H33.06Zm12.35,2.014H41v-2.014H52.307v2.014H47.88V0H45.41Zm24.168-2.014V0H67.146V-5.871H60.211V0H57.8V-13.528h2.413v5.662h6.935v-5.662Zm6.726,0h8.835v1.957h-6.4v3.7h6.023V-5.89H78.736V0H76.3ZM96.558.171a5.732,5.732,0,0,1-4.228-1.434A5.7,5.7,0,0,1,90.9-5.472v-8.056h2.413v8.189a3.827,3.827,0,0,0,.817,2.651,3.115,3.115,0,0,0,2.432.9,3.078,3.078,0,0,0,2.4-.912,3.8,3.8,0,0,0,.826-2.641v-8.189H102.2v8.056a5.688,5.688,0,0,1-1.444,4.2A5.688,5.688,0,0,1,96.558.171Zm12.274-13.7h2.451V-2.014h6.327V0h-8.778ZM127.6.171a9.868,9.868,0,0,1-2.916-.418,6.7,6.7,0,0,1-2.309-1.2l.836-1.786a7.128,7.128,0,0,0,2.062,1.092,7.5,7.5,0,0,0,2.346.351A4.024,4.024,0,0,0,129.8-2.28a1.56,1.56,0,0,0,.77-1.387,1.282,1.282,0,0,0-.713-1.169,8.941,8.941,0,0,0-2.346-.77A9.743,9.743,0,0,1,123.8-7.03a2.992,2.992,0,0,1-1.159-2.546,3.642,3.642,0,0,1,.646-2.128,4.311,4.311,0,0,1,1.834-1.463,6.657,6.657,0,0,1,2.745-.532,8.506,8.506,0,0,1,2.707.427,5.661,5.661,0,0,1,2.1,1.188L131.86-10.3a6.238,6.238,0,0,0-3.99-1.444,3.509,3.509,0,0,0-2.071.542,1.714,1.714,0,0,0-.76,1.472,1.346,1.346,0,0,0,.674,1.216,8,8,0,0,0,2.309.779,16.463,16.463,0,0,1,2.755.864,4.1,4.1,0,0,1,1.634,1.2,2.893,2.893,0,0,1,.57,1.834,3.544,3.544,0,0,1-.646,2.118,4.126,4.126,0,0,1-1.862,1.4A7.6,7.6,0,0,1,127.6.171Z" transform="translate(-0.419 43.703)"/></g></g></g></svg>